<svg width="195.84" height="156.27" version="1.1" viewBox="0 0 195.84 156.27" xmlns="http://www.w3.org/2000/svg">
	<title>Ed Park Logo</title>
	<defs>
		<filter id="edpark-logo-main-0" x="-.095017" y="-.12509" width="1.19" height="1.2502" color-interpolation-filters="sRGB">
			<feComposite in2="SourceGraphic" k2="1.38778e-16" operator="arithmetic" result="composite1"/>
			<feColorMatrix in="composite1" result="colormatrix1" type="saturate" values="1"/>
			<feFlood flood-color="rgb(0,119,255)" result="flood1"/>
			<feBlend in="flood1" in2="colormatrix1" mode="multiply" result="blend1"/>
			<feBlend in2="blend1" mode="screen" result="blend2"/>
			<feColorMatrix in="blend2" result="colormatrix2" type="saturate" values="1"/>
			<feComposite in="colormatrix2" in2="SourceGraphic" operator="in" result="composite2"/>
			<feGaussianBlur result="fbSourceGraphic" stdDeviation="23.783625"/>
			<feColorMatrix in="fbSourceGraphic" result="fbSourceGraphicAlpha" values="0 0 0 -1 0 0 0 0 -1 0 0 0 0 -1 0 0 0 0 1 0"/>
			<feComposite in="fbSourceGraphic" in2="fbSourceGraphic" k2="1.38778e-16" operator="arithmetic" result="composite1"/>
			<feColorMatrix in="composite1" result="colormatrix1" type="saturate" values="1"/>
			<feFlood flood-color="rgb(79,94,255)" result="flood1"/>
			<feBlend in="flood1" in2="colormatrix1" mode="multiply" result="blend1"/>
			<feBlend in2="blend1" mode="screen" result="blend2"/>
			<feColorMatrix in="blend2" result="colormatrix2" type="saturate" values="1"/>
			<feComposite in="colormatrix2" in2="fbSourceGraphic" operator="in" result="composite2"/>
		</filter>
		<filter id="edpark-logo-main-1" x="-.16892" y="-.22239" width="1.3378" height="1.4448" color-interpolation-filters="sRGB">
			<feComposite in2="SourceGraphic" k2="1.38778e-16" operator="arithmetic" result="composite1"/>
			<feColorMatrix in="composite1" result="colormatrix1" type="saturate" values="1"/>
			<feFlood flood-color="rgb(0,119,255)" result="flood1"/>
			<feBlend in="flood1" in2="colormatrix1" mode="multiply" result="blend1"/>
			<feBlend in2="blend1" mode="screen" result="blend2"/>
			<feColorMatrix in="blend2" result="colormatrix2" type="saturate" values="1"/>
			<feComposite in="colormatrix2" in2="SourceGraphic" operator="in" result="composite2"/>
			<feGaussianBlur result="fbSourceGraphic" stdDeviation="42.282"/>
			<feColorMatrix in="fbSourceGraphic" result="fbSourceGraphicAlpha" values="0 0 0 -1 0 0 0 0 -1 0 0 0 0 -1 0 0 0 0 1 0"/>
			<feComposite in="fbSourceGraphic" in2="fbSourceGraphic" k2="1.38778e-16" operator="arithmetic" result="composite1"/>
			<feColorMatrix in="composite1" result="colormatrix1" type="saturate" values="1"/>
			<feFlood flood-color="rgb(255,255,255)" result="flood1"/>
			<feBlend in="flood1" in2="colormatrix1" mode="multiply" result="blend1"/>
			<feBlend in2="blend1" mode="screen" result="blend2"/>
			<feColorMatrix in="blend2" result="colormatrix2" type="saturate" values="1"/>
			<feComposite in="colormatrix2" in2="fbSourceGraphic" operator="in" result="composite2"/>
		</filter>
		<clipPath id="clipPath1166">
			<rect x="12.162" y="12.162" width="195.84" height="156.27" fill="#030522"/>
		</clipPath>
	</defs>
	<style type="text/css">.edpark-logo-main-2{fill:#0A1C37;}
	.edpark-logo-main-3{fill:#0000FF;}</style>
	<g transform="translate(-12.162 -12.162)" clip-path="url(#clipPath1166)">
		<g transform="matrix(.27394 0 0 .27394 -38.021 6.075)" filter="url(#edpark-logo-main-1)" style="mix-blend-mode:normal">
			<path class="edpark-logo-main-2" d="m538.3 422.87c0.17 1.05 0.34 2.11 0.51 3.15 1.36 0.18 2.74 0.35 4.13 0.52-1.58-1.18-3.12-2.4-4.64-3.67z" fill="#0a1c37"/>
			<g fill="#0a1c37">
				<path class="edpark-logo-main-2" d="m540.61 79.3c-90.6 0-168.88 52.81-205.71 129.35 2.9 0.17 5.76 0.38 8.62 0.65 0.34 0.03 0.69 0.06 1.03 0.1 4.3-8.6 9.16-16.88 14.53-24.78 3.08-4.57 6.34-8.99 9.75-13.29 19.16-24.14 43.29-44.16 70.86-58.48 4.98-2.57 10.06-4.98 15.25-7.18 10.85-4.62 22.16-8.39 33.83-11.22 3.15-0.76 6.32-1.46 9.53-2.08 13.69-2.68 27.84-4.09 42.32-4.09 13.9 0 27.49 1.29 40.66 3.77 3.02 0.56 6.01 1.19 8.99 1.88 12.68 2.94 24.92 6.97 36.64 12 5.17 2.21 10.25 4.62 15.21 7.21 27.52 14.41 51.59 34.47 70.68 58.67 3.4 4.3 6.63 8.74 9.7 13.29 5.27 7.8 10.05 15.98 14.29 24.45 3.32-0.32 6.52-0.59 9.61-0.77-36.81-76.6-115.13-129.48-205.79-129.48zm221.47 173.1c-2.82 1.04-5.65 2.11-8.46 3.19 1.19 4.93 2.22 9.94 3.08 15 0.94 5.5 1.66 11.06 2.16 16.68v0.03c0.62 6.63 0.93 13.37 0.93 20.15v1.03c-0.03 4.38-0.17 8.73-0.45 13.06 0 0.04-0.01 0.08-0.01 0.13-7.31 114.43-102.45 204.96-218.72 204.96-113.02 0-206.06-85.55-217.88-195.42-0.15-1.28-0.28-2.57-0.39-3.86-0.11-1.11-0.2-2.22-0.3-3.34-0.13-1.74-0.22-3.5-0.32-5.26-0.04-0.94-0.08-1.87-0.13-2.81-0.03-0.94-0.06-1.88-0.08-2.81-0.06-1.77-0.07-3.54-0.07-5.33 0-0.86 0.01-1.71 0.01-2.59 0.06-6.16 0.38-12.27 0.94-18.3 0.52-5.65 1.25-11.23 2.21-16.74 0.84-4.92 1.84-9.77 3.01-14.56-2.81-1.08-5.64-2.15-8.46-3.19-4.37 17.62-6.69 36.06-6.69 55.03 0 126.01 102.14 228.16 228.15 228.16s228.16-102.16 228.16-228.16c0-18.99-2.32-37.43-6.69-55.05z"/>
				<path class="edpark-logo-main-2" d="m530.44 92.1c3.48 0.17 6.98 0.41 10.51 0.76-3.41-0.27-6.93-0.53-10.51-0.76z"/>
				<path class="edpark-logo-main-2" d="m529.85 92.07c0.19 0.01 0.4 0.02 0.59 0.03-0.2-0.01-0.39-0.03-0.59-0.03z"/>
				<path class="edpark-logo-main-2" d="m407.71 129.12c-1.62 1.19-3.17 2.35-4.57 3.44 1.48-1.2 3.05-2.29 4.57-3.44z"/>
				<path class="edpark-logo-main-2" d="m415.29 123.67c-2.58 1.75-5.09 3.57-7.57 5.45 2.44-1.81 5.03-3.66 7.57-5.45z"/>
				<path class="edpark-logo-main-2" d="m660.3 119.95c4.54 3.02 9.31 6.26 13.15 9.06-4.23-3.24-8.64-6.21-13.15-9.06z"/>
				<path class="edpark-logo-main-2" d="m621.57 508.08c1.81-0.72 3.6-1.48 5.35-2.28-1.87 0.8-3.73 1.59-5.35 2.28zm-31.41-182.29c-13.15 0.84-26.42 1.34-39.65 1.49-0.01-2.73-0.04-5.44-0.06-8.17-2.02 1.8-4.03 3.63-6.03 5.48l-3.82 3.56-3.84-3.56c-1.05-0.98-2.11-1.95-3.18-2.91-0.03 1.86-0.04 3.71-0.06 5.58-14.46-0.15-28.8-0.72-42.77-1.66 5.55 5.65 11.02 11.57 16.43 17.78 8.67 0.41 17.43 0.65 26.24 0.74-0.04 6.9-0.06 13.81-0.07 20.72 0 3.89-0.01 7.72-0.01 11.5 2.26 3.09 4.51 6.25 6.76 9.47 0.15 0.22 0.31 0.45 0.48 0.66 1.05-1.46 2.12-2.97 3.18-4.47 2.25-3.22 4.51-6.39 6.8-9.51 0.01-2.52 0.03-5.07 0.03-7.65 0.01-6.9 0.01-13.8-0.01-20.72 7.72-0.08 15.43-0.28 23.13-0.6 5.37-6.14 10.85-12.05 16.45-17.73zm-146.84-63.34c-1.41 6.53-2.68 13.14-3.81 19.82 4.51 3.13 8.92 6.35 13.25 9.67 1.03-7.88 2.22-15.68 3.6-23.39-4.3-2.13-8.66-4.16-13.04-6.1zm146.84 63.34c-13.15 0.84-26.42 1.34-39.65 1.49-0.01-2.73-0.04-5.44-0.06-8.17-2.02 1.8-4.03 3.63-6.03 5.48l-3.82 3.56-3.84-3.56c-1.05-0.98-2.11-1.95-3.18-2.91-0.03 1.86-0.04 3.71-0.06 5.58-14.46-0.15-28.8-0.72-42.77-1.66 5.55 5.65 11.02 11.57 16.43 17.78 8.67 0.41 17.43 0.65 26.24 0.74-0.04 6.9-0.06 13.81-0.07 20.72 0 3.89-0.01 7.72-0.01 11.5 2.26 3.09 4.51 6.25 6.76 9.47 0.15 0.22 0.31 0.45 0.48 0.66 1.05-1.46 2.12-2.97 3.18-4.47 2.25-3.22 4.51-6.39 6.8-9.51 0.01-2.52 0.03-5.07 0.03-7.65 0.01-6.9 0.01-13.8-0.01-20.72 7.72-0.08 15.43-0.28 23.13-0.6 5.37-6.14 10.85-12.05 16.45-17.73zm53.3-65.97c-4.6 1.91-9.14 3.94-13.62 6.07 1.38 7.31 2.6 14.71 3.67 22.19 4.53-3.36 9.11-6.59 13.79-9.73-1.15-6.23-2.42-12.43-3.84-18.53zm-269.01-18.75c-0.55 1.38-1.08 2.75-1.6 4.15 3.06 1.35 6.13 2.71 9.15 4.13 0.73-2.09 1.49-4.17 2.29-6.24-3.26-0.73-6.54-1.41-9.84-2.04zm247.12 267.01c1.81-0.72 3.6-1.48 5.35-2.28-1.87 0.8-3.73 1.59-5.35 2.28zm-171.92-112.01c-4.4-3.06-8.59-6.66-12.56-10.81-1.17-1.21-2.28-2.43-3.34-3.67 0.52 8.69 1.32 17.05 2.4 25.07 5.1 5.86 10.68 11.29 16.67 16.2-1.34-8.48-2.41-17.43-3.17-26.79zm140.51-70.28c-13.15 0.84-26.42 1.34-39.65 1.49-0.01-2.73-0.04-5.44-0.06-8.17-2.02 1.8-4.03 3.63-6.03 5.48l-3.82 3.56-3.84-3.56c-1.05-0.98-2.11-1.95-3.18-2.91-0.03 1.86-0.04 3.71-0.06 5.58-14.46-0.15-28.8-0.72-42.77-1.66 5.55 5.65 11.02 11.57 16.43 17.78 8.67 0.41 17.43 0.65 26.24 0.74-0.04 6.9-0.06 13.81-0.07 20.72 0 3.89-0.01 7.72-0.01 11.5 2.26 3.09 4.51 6.25 6.76 9.47 0.15 0.22 0.31 0.45 0.48 0.66 1.05-1.46 2.12-2.97 3.18-4.47 2.25-3.22 4.51-6.39 6.8-9.51 0.01-2.52 0.03-5.07 0.03-7.65 0.01-6.9 0.01-13.8-0.01-20.72 7.72-0.08 15.43-0.28 23.13-0.6 5.37-6.14 10.85-12.05 16.45-17.73zm31.41 182.29c1.81-0.72 3.6-1.48 5.35-2.28-1.87 0.8-3.73 1.59-5.35 2.28zm-171.92-112.01c-4.4-3.06-8.59-6.66-12.56-10.81-1.17-1.21-2.28-2.43-3.34-3.67 0.52 8.69 1.32 17.05 2.4 25.07 5.1 5.86 10.68 11.29 16.67 16.2-1.34-8.48-2.41-17.43-3.17-26.79zm171.92 112.01c1.81-0.72 3.6-1.48 5.35-2.28-1.87 0.8-3.73 1.59-5.35 2.28zm-171.92-112.01c-4.4-3.06-8.59-6.66-12.56-10.81-1.17-1.21-2.28-2.43-3.34-3.67 0.52 8.69 1.32 17.05 2.4 25.07 5.1 5.86 10.68 11.29 16.67 16.2-1.34-8.48-2.41-17.43-3.17-26.79zm171.92 112.01c1.81-0.72 3.6-1.48 5.35-2.28-1.87 0.8-3.73 1.59-5.35 2.28zm100.62-319.58c0.24-1.12 0.34-2.26 0.3-3.39-0.1-3.15-1.26-6.28-3.54-9.43l-4.86-6.49-4.79-5.89c2.11 2.84 3.26 5.69 3.5 8.52 0.1 1.29 0.01 2.59-0.25 3.86-18.83-23.17-42.5-42.6-69.51-56.79 0.39-1.9 0.1-3.82-0.91-5.75-1.04-1.95-2.84-3.92-5.44-5.85 8.25 3.61 16.11 7.9 23.64 12.65-2.26-1.49-4.47-2.95-6.45-4.24-10.53-6.37-21.8-11.59-33.66-15.56-12.37-4.13-25.4-6.87-38.93-8.1-13.01-1.18-26.51-0.96-40.32 0.82 17.01-1.74 33.52-1.31 49.31 1.07 11.24 1.69 22.13 4.37 32.56 7.95 1.8 1.34 3.16 2.68 4.08 4.05 1.34 1.95 1.77 3.94 1.36 5.87-26.74-11.66-56.27-18.4-87.32-18.94 30.81 1.22 60.11 8.59 86.66 20.83-1.59 3.22-5.49 6.32-11.47 9.12-23.03-15.04-48.46-25.49-75.19-29.95 25.42 5.02 49.58 16.01 71.48 31.54-6.77 2.66-15.56 4.96-26.13 6.72-13.89-17.58-29.22-30.85-45.35-38.25 13.87 7.76 27.05 21.33 39 39.22-0.17 0.01-0.35 0.04-0.52 0.07-11.13 1.49-22.87 2.28-34.5 2.4-1.21-18.65-2.56-33.07-3.98-41.7-1.01 8.63-2 23.05-2.9 41.68-11.76-0.13-23.3-0.91-33.9-2.29 11.29-17.93 23.72-31.58 36.79-39.39-15.22 7.5-29.71 20.86-42.85 38.52-10.22-1.6-19.35-3.79-26.72-6.48 21.33-15.68 44.86-26.84 69.57-32.04-26.15 4.62-51.06 15.23-73.63 30.41-1.8-0.77-3.44-1.59-4.93-2.45-4.05-2.29-6.68-4.68-7.98-7.08 26.53-12.27 55.81-19.65 86.54-20.88-31.02 0.55-60.54 7.29-87.3 18.97-0.53-2.08-0.07-4.16 1.29-6.17 0.82-1.21 1.95-2.39 3.42-3.56 9.77-3.34 19.93-5.93 30.41-7.66 13.22-2.18 26.97-3.02 41.09-2.39-9.61-0.6-19.94-0.84-31.56 0.31-11.17 1.1-23.54 3.49-37.59 8.08-4.62 1.53-9.15 3.26-13.59 5.17-8.6 3.7-16.85 8.07-24.68 13.08l-0.67 0.44c-1.98 1.36-4.2 2.92-6.46 4.53 9.15-6.2 18.85-11.64 29.09-16.12-2.16 1.71-3.74 3.49-4.69 5.3-1.04 2-1.34 4.03-0.82 6.07-27.05 14.21-50.76 33.62-69.68 56.81-0.37-1.48-0.49-2.94-0.37-4.4 0.25-3.08 1.57-6.11 3.91-9.09l-5.16 6.31-4.89 6.48c-2.29 3.15-3.53 6.37-3.61 9.6-0.04 1.31 0.1 2.61 0.44 3.92-4.74 6.76-9.08 13.79-13 21.04 1.14 0.11 2.28 0.24 3.42 0.37l0.38 0.04c3.32-5.99 6.91-11.82 10.78-17.47 2.71 4.99 8.17 9.95 16.58 14.73 3.11 1.76 6.52 3.46 10.23 5.07-0.59 1.1-1.18 2.19-1.74 3.3 3.84 0.76 7.01 1.45 9.28 1.95 0.3-0.63 0.6-1.25 0.93-1.88 4.58 1.67 9.5 3.26 14.7 4.74 0.06-0.08 0.11-0.15 0.17-0.24 0.89-1.18 1.97-2.66 3.49-4.48 2.47-2.98 4.99-5.85 7.56-8.62-6.54-1.73-12.62-3.63-18.19-5.66 15.07-26.01 33.97-48.98 55.53-67.23 8.59 3.15 19.27 5.71 31.21 7.59-5.31 8.12-10.37 16.95-15.11 26.38 3.86-1.73 7.81-3.27 11.82-4.67 3.3-7.31 6.77-14.22 10.37-20.7 12.4 1.62 25.89 2.54 39.65 2.7-0.14 3.09-0.27 6.3-0.39 9.57 0.86-0.01 1.73-0.01 2.6-0.01 2.09 0 4.2 0.04 6.34 0.13-0.17-3.32-0.34-6.55-0.52-9.68 13.62-0.15 27.32-1.07 40.35-2.81 0.2-0.03 0.39-0.06 0.6-0.08 4.22 7.17 8.25 14.88 12.07 23.08 4.5 1.76 8.94 3.74 13.31 5.93-5.58-10.86-11.59-20.97-17.96-30.13 12.35-2.05 22.64-4.75 30.55-7.87 22.11 18.1 41.47 40.92 56.89 66.83-6.42 2.52-13.76 4.89-21.97 7.04 3.5 3.81 6.89 7.88 10.25 12.24 0.32 0.42 0.65 0.82 0.96 1.12 6.86-1.94 13.1-4.01 18.66-6.2 0.34 0.66 0.67 1.32 1.01 1.98 2.53-0.6 5.4-1.25 8.53-1.88-0.6-1.14-1.22-2.28-1.84-3.4 12.41-5.79 20.5-12.23 23.81-18.92 3.89 5.72 7.52 11.61 10.85 17.67 0.18-0.01 0.35-0.04 0.52-0.06l0.34-0.03c0.91-0.1 1.81-0.2 2.7-0.28-3.96-7.34-8.31-14.43-13.06-21.24zm-326.11 9.72c-3.51-1.52-6.76-3.12-9.7-4.79-7.95-4.53-13.13-9.22-15.68-13.94 18.73-23.6 42.25-43.54 69.06-58.34 1.52 2.81 4.6 5.61 9.33 8.29 1.74 1 3.67 1.95 5.76 2.85-22.81 17.75-42.82 40.28-58.77 65.93zm292.62-0.91c-16.22-25.56-36.6-47.95-59.86-65.56 6.98-3.26 11.55-6.89 13.41-10.65 26.8 14.78 50.3 34.71 68.99 58.3-3.14 6.33-10.81 12.43-22.54 17.91zm-138.8 234.16c0.07-3.33 0.14-6.75 0.21-10.23-1.28 1.88-2.56 3.78-3.85 5.71l-5.55 8.25-4.71-6.58c-0.83-1.17-1.64-2.33-2.43-3.49 0.03 2.15 0.04 4.26 0.07 6.34-26.35-0.3-52.22-1.98-76.19-4.93 8.17 6.16 16.99 11.43 26.35 15.67 16.2 1.35 33 2.15 50.02 2.33 0.06 3.34 0.11 6.61 0.17 9.77 2.04 0.1 4.1 0.14 6.17 0.14 3.04 0 6.11-0.1 9.18-0.31 0.08-3.11 0.18-6.31 0.27-9.6 16.08-0.18 32.23-0.89 48.11-2.18 9.3-4.15 18.03-9.36 26.17-15.6-24.04 2.93-49.1 4.45-73.99 4.71zm40.26-105.68c-13.15 0.84-26.42 1.34-39.65 1.49-0.01-2.73-0.04-5.44-0.06-8.17-2.02 1.8-4.03 3.63-6.03 5.48l-3.82 3.56-3.84-3.56c-1.05-0.98-2.11-1.95-3.18-2.91-0.03 1.86-0.04 3.71-0.06 5.58-14.46-0.15-28.8-0.72-42.77-1.66 5.55 5.65 11.02 11.57 16.43 17.78 8.67 0.41 17.43 0.65 26.24 0.74-0.04 6.9-0.06 13.81-0.07 20.72 0 3.89-0.01 7.72-0.01 11.5 2.26 3.09 4.51 6.25 6.76 9.47 0.15 0.22 0.31 0.45 0.48 0.66 1.05-1.46 2.12-2.97 3.18-4.47 2.25-3.22 4.51-6.39 6.8-9.51 0.01-2.52 0.03-5.07 0.03-7.65 0.01-6.9 0.01-13.8-0.01-20.72 7.72-0.08 15.43-0.28 23.13-0.6 5.37-6.14 10.85-12.05 16.45-17.73zm-146.84-63.34c-1.41 6.53-2.68 13.14-3.81 19.82 4.51 3.13 8.92 6.35 13.25 9.67 1.03-7.88 2.22-15.68 3.6-23.39-4.3-2.13-8.66-4.16-13.04-6.1zm6.33 133.62c-4.4-3.06-8.59-6.66-12.56-10.81-1.17-1.21-2.28-2.43-3.34-3.67 0.52 8.69 1.32 17.05 2.4 25.07 5.1 5.86 10.68 11.29 16.67 16.2-1.34-8.48-2.41-17.43-3.17-26.79zm-47.7-82.96c-0.13 5.73 0.11 11.48 0.73 17.22 4.01 0.91 8.11 1.78 12.31 2.61 0.01-5.41 0.59-10.96 1.76-16.67-5.07-0.98-10.02-2.03-14.8-3.16zm242.36 72.1c-2.29 2.39-4.67 4.6-7.1 6.63-0.73 9.13-1.76 17.89-3.06 26.22 4.1-3.84 8.02-7.97 11.76-12.4 2.14-2.53 4.19-5.1 6.13-7.72 0.96-7.97 1.63-16.23 2.02-24.78-2.78 4.16-6.02 8.18-9.75 12.05zm115.29-85.01c-0.06-1.57-0.13-3.16-0.21-4.72-0.14-2.57-0.31-5.26-0.52-8.18v-0.03c0.35-1.7 0.45-3.43 0.28-5.14l-1.98-14.94-0.34-1.87c0.24 1.76 0.2 3.51-0.13 5.27-0.03 0.15-0.06 0.3-0.08 0.45-0.93-5.17-2.05-10.27-3.36-15.3-0.86 0.32-1.73 0.66-2.59 1 1.73 6.23 3.16 12.55 4.3 18.96-3.92 7.97-13.58 15.64-28.35 22.54-1.46-9.65-3.47-19.2-6.02-28.56l-8.8 4.09c2.38 9.32 4.26 18.8 5.64 28.39-4.95 1.95-10.34 3.81-16.16 5.59 0.3 5.76 0.3 11.48-0.01 17.16 6.52-1.95 12.54-4.02 18.02-6.17 0.53 6.83 0.82 13.7 0.8 20.6-0.06 24.57-3.67 47.45-10.27 68.08-12.77 5.02-28.6 9.5-47.16 13.24-4.71 5.51-9.78 10.71-15.22 15.54 23.12-3.98 42.41-9.12 57.4-15.01-10.17 25.06-25.03 46.22-43.37 62.3-11.47 4.51-26.38 8.42-44.3 11.41 11.24-13.87 20.45-32.79 26.9-55.77-1.04 0.87-2.11 1.74-3.18 2.6-4.54 3.63-9.26 7-14.14 10.09-5.28 18.13-12.18 33.21-20.34 44.69-0.3 0.04-0.59 0.08-0.87 0.13-18.87 2.53-38.75 3.85-58.49 4.06 0.53-6.66 1-14.69 1.43-23.95-2.54 0.13-5.1 0.18-7.66 0.18h-0.01c-2.11 0-4.2-0.04-6.31-0.13 0.28 9.25 0.58 17.24 0.91 23.89-19.93-0.21-39.49-1.56-57.45-3.89-7.21-10.81-13.35-24.85-18.14-41.64-5.55-3.19-10.85-6.7-15.91-10.5 5.89 20.73 14 37.86 23.78 50.66-17.3-2.73-32.79-6.42-45.25-10.99-17.76-15.95-32.13-37-41.92-62.01 14.74 5.41 32.63 9.91 52.55 13.44-5.42-4.88-10.5-10.09-15.18-15.61-15.74-3.22-29.99-7.1-42.16-11.55-6.34-20.59-9.78-43.44-9.73-68.01 0.01-6.89 0.3-13.76 0.84-20.6 4.17 1.53 8.57 2.99 13.18 4.38-0.28-5.66-0.24-11.38 0.11-17.13-3.99-1.24-7.81-2.52-11.45-3.85 1.32-9.28 3.11-18.45 5.35-27.49l-0.94-0.46-8.66-4.01c-2.45 9.16-4.38 18.49-5.82 27.94-4.43-1.93-8.5-3.94-12.2-6.04-10.01-5.68-16.51-11.59-19.73-17.53 1.15-6.38 2.6-12.68 4.31-18.87-0.93-0.38-1.87-0.74-2.8-1.11-1.32 5.02-2.46 10.1-3.4 15.25-0.07-0.31-0.14-0.6-0.2-0.91-0.42-2.12-0.42-4.24-0.04-6.34l-0.46 2.64-2.05 14.93c-0.18 1.84-0.07 3.67 0.35 5.51 0.03 0.14 0.06 0.3 0.1 0.44-0.6 5.89-0.94 11.86-1.04 17.86 0 0.87-0.01 1.73-0.01 2.59 0 1.78 0.01 3.56 0.07 5.33 0.03 0.93 0.06 1.87 0.08 2.81 0.04 0.94 0.08 1.87 0.13 2.81 0.1 1.76 0.2 3.51 0.32 5.26 0.1 1.12 0.18 2.23 0.3 3.34 0.13 1.29 0.25 2.59 0.39 3.86 1.03 8.99 2.63 17.81 4.79 26.42 1.94 6.58 4.46 15.37 6.72 21.84l3.01 7.73c1.35 2.97 2.91 6.48 4.5 9.92 3.08 5.38 8.99 10.72 18.06 15.88 3.44 1.95 7.24 3.82 11.34 5.62 10.37 25.23 25.58 46.62 44.38 62.98-7.18-3.42-11.14-5.31-15.98-9.32l1.41 1.17c3.94 3.02 9.11 7.17 13.15 10.03 1.26 0.87 2.64 1.74 4.15 2.6 2.33 1.32 4.89 2.59 7.66 3.79 8.19 5.93 16.95 11 26.2 15.11l8.35 3.49 1.57 0.59c-4.85-1.93-9.57-4.13-14.15-6.65-5.42-2.95-10.64-6.31-15.64-10.02 11.43 4.19 25.62 7.58 41.49 10.08 9.64 10.19 20.62 16.54 32.53 18.44l2.26 0.35 3.22 0.45 0.32 0.04c-10.46-2.45-16.95-4.48-28.94-17.93 16.47 2.14 34.4 3.37 52.67 3.57 0.69 10.53 1.49 16.19 2.38 16.2h4.81c1.28-0.04 2.45-5.71 3.49-16.2 18.09-0.2 36.3-1.41 53.6-3.72 0.27-0.04 0.53-0.08 0.8-0.11-9.02 10.25-19.31 16.46-30.45 18.02l7.15-1.12 0.46-0.07c0.2-0.06 0.39-0.11 0.59-0.17 3.51-0.74 6.94-1.84 10.29-3.27 0.42-0.17 0.84-0.35 1.26-0.53 0.18-0.08 0.37-0.17 0.56-0.25 5.93-2.59 12.21-6.54 19.98-14.08 16.43-2.74 30.09-6.32 40.6-10.46-7.63 5.55-15.74 10.3-24.29 14.17 2.5-1.07 5.05-2.18 7.15-3.16l0.86-0.41c7.7-3.72 15.07-8.08 22.02-13.06 3.58-1.67 6.69-3.42 9.29-5.21 4.33-3.26 10.16-7.52 14.36-10.96-4.81 3.5-5.94 4.33-12.99 7.84 19.28-16.49 34.91-37.97 45.62-63.27 13.35-6.23 22.15-13.15 26-20.34-0.51 1.12-1.01 2.28-1.5 3.29 0.63-1.29 1.25-2.6 1.87-3.91 0.59-1.28 1.05-2.61 1.62-3.91 1.86-4.3 3.7-8.78 5.24-12.52l0.58-1.55c2.61-7.81 5.57-18.4 7.69-26.34l0.73-3.36c0.13-0.74 0.24-1.43 0.35-2.15 1.21-6.18 2.16-12.45 2.8-18.82 0.24-2.09 0.45-4.17 0.6-6.28 0-0.04 0.01-0.08 0.01-0.13 0.31-4.09 0.46-8.31 0.45-13.06 0-2.59-0.07-5.33-0.18-8.28zm-405.2 98.78c-9.6-5.45-15.82-11.12-18.92-16.81-7.9-21.6-12.18-45.01-12.13-69.58 0.01-6.89 0.37-13.72 1.04-20.48 3.26 6 9.82 11.97 19.94 17.72 3.74 2.12 7.86 4.16 12.33 6.1-0.58 6.83-0.89 13.7-0.9 20.59-0.04 24.57 3.6 47.5 10.32 68.23-4.25-1.83-8.14-3.76-11.68-5.77zm391.35-16.92c-3.75 7.63-13 14.98-27.15 21.59 6.94-20.77 10.75-43.74 10.79-68.29 0.01-6.9-0.27-13.76-0.84-20.59 14.94-6.97 24.69-14.73 28.66-22.77 0.66 6.75 0.98 13.58 0.97 20.46-0.04 24.57-4.42 47.98-12.43 69.6zm-99.71-155.45c-3.4-4.43-7.66-9.02-12.65-13.53-1.11 0.2-2.23 0.39-3.37 0.58-0.6-1.69-1.21-3.36-1.84-5.03-5.02-4.08-10.64-8.01-16.78-11.65 2.15 6.03 4.2 12.23 6.13 18.57-0.34 0.06-0.67 0.1-1.01 0.14-21.88 2.95-44.94 4.48-67.85 4.72-0.44-15.22-0.96-29.7-1.52-43.15-2.19-0.11-4.41-0.17-6.66-0.17h-0.56c-1.18 0-2.38 0.03-3.54 0.07-0.45 13.48-0.84 28-1.21 43.24-23.13-0.25-45.82-1.8-66.67-4.53 2.18-7.49 4.5-14.8 6.96-21.88-5.35 2.88-10.36 5.99-14.97 9.23-1.34 3.6-2.64 7.25-3.89 10.95-2.78-0.44-5.54-0.9-8.24-1.38-5.07 4.5-9.4 9.06-12.85 13.46 5.26 1.04 10.71 2.01 16.32 2.9-0.65 2.15-1.26 4.31-1.87 6.49 4.03 1.71 8.04 3.51 12 5.38 0.79-3.39 1.6-6.75 2.45-10.08 22.02 2.87 45.98 4.51 70.42 4.78-0.34 16.2-0.63 33.1-0.86 50.34 2.23 1.78 4.46 3.61 6.65 5.47 3.11-2.63 6.24-5.2 9.43-7.72-0.24-16.47-0.58-32.59-0.97-48.09 24.19-0.25 48.56-1.88 71.67-4.99 0.37-0.04 0.72-0.1 1.07-0.14 0.73 2.73 1.43 5.48 2.12 8.25 4.15-1.88 8.32-3.68 12.55-5.41-0.48-1.62-0.97-3.23-1.48-4.83 3.78-0.63 7.47-1.29 11.02-1.99zm-2.58 33.21c-4.6 1.91-9.14 3.94-13.62 6.07 1.38 7.31 2.6 14.71 3.67 22.19 4.53-3.36 9.11-6.59 13.79-9.73-1.15-6.23-2.42-12.43-3.84-18.53zm35.58 53.81c-4.61 1.07-9.4 2.08-14.38 3.04 1.12 5.72 1.69 11.27 1.66 16.67 4.13-0.8 8.15-1.63 12.03-2.5 0.58-5.64 0.8-11.38 0.69-17.21zm31.71-73.33c-3.05 0.53-6.09 1.11-9.09 1.74 0.66 1.7 1.31 3.4 1.93 5.12 2.77-1.29 5.55-2.57 8.38-3.82-0.41-1.03-0.82-2.04-1.22-3.04zm-261.1 155.77c-4.4-3.06-8.59-6.66-12.56-10.81-1.17-1.21-2.28-2.43-3.34-3.67 0.52 8.69 1.32 17.05 2.4 25.07 5.1 5.86 10.68 11.29 16.67 16.2-1.34-8.48-2.41-17.43-3.17-26.79zm171.92 112.01c1.81-0.72 3.6-1.48 5.35-2.28-1.87 0.8-3.73 1.59-5.35 2.28zm-171.92-112.01c-4.4-3.06-8.59-6.66-12.56-10.81-1.17-1.21-2.28-2.43-3.34-3.67 0.52 8.69 1.32 17.05 2.4 25.07 5.1 5.86 10.68 11.29 16.67 16.2-1.34-8.48-2.41-17.43-3.17-26.79zm171.92 112.01c1.81-0.72 3.6-1.48 5.35-2.28-1.87 0.8-3.73 1.59-5.35 2.28zm-171.92-112.01c-4.4-3.06-8.59-6.66-12.56-10.81-1.17-1.21-2.28-2.43-3.34-3.67 0.52 8.69 1.32 17.05 2.4 25.07 5.1 5.86 10.68 11.29 16.67 16.2-1.34-8.48-2.41-17.43-3.17-26.79zm171.92 112.01c1.81-0.72 3.6-1.48 5.35-2.28-1.87 0.8-3.73 1.59-5.35 2.28zm21.89-248.26c-4.6 1.91-9.14 3.94-13.62 6.07 1.38 7.31 2.6 14.71 3.67 22.19 4.53-3.36 9.11-6.59 13.79-9.73-1.15-6.23-2.42-12.43-3.84-18.53zm-53.3 65.97c-13.15 0.84-26.42 1.34-39.65 1.49-0.01-2.73-0.04-5.44-0.06-8.17-2.02 1.8-4.03 3.63-6.03 5.48l-3.82 3.56-3.84-3.56c-1.05-0.98-2.11-1.95-3.18-2.91-0.03 1.86-0.04 3.71-0.06 5.58-14.46-0.15-28.8-0.72-42.77-1.66 5.55 5.65 11.02 11.57 16.43 17.78 8.67 0.41 17.43 0.65 26.24 0.74-0.04 6.9-0.06 13.81-0.07 20.72 0 3.89-0.01 7.72-0.01 11.5 2.26 3.09 4.51 6.25 6.76 9.47 0.15 0.22 0.31 0.45 0.48 0.66 1.05-1.46 2.12-2.97 3.18-4.47 2.25-3.22 4.51-6.39 6.8-9.51 0.01-2.52 0.03-5.07 0.03-7.65 0.01-6.9 0.01-13.8-0.01-20.72 7.72-0.08 15.43-0.28 23.13-0.6 5.37-6.14 10.85-12.05 16.45-17.73zm-140.51 70.28c-4.4-3.06-8.59-6.66-12.56-10.81-1.17-1.21-2.28-2.43-3.34-3.67 0.52 8.69 1.32 17.05 2.4 25.07 5.1 5.86 10.68 11.29 16.67 16.2-1.34-8.48-2.41-17.43-3.17-26.79zm171.92 112.01c1.81-0.72 3.6-1.48 5.35-2.28-1.87 0.8-3.73 1.59-5.35 2.28zm21.89-248.26c-4.6 1.91-9.14 3.94-13.62 6.07 1.38 7.31 2.6 14.71 3.67 22.19 4.53-3.36 9.11-6.59 13.79-9.73-1.15-6.23-2.42-12.43-3.84-18.53z"/>
				<path class="edpark-logo-main-2" d="m341.32 396.43c0.68 1.47 1.42 2.9 2.13 4.35 0.77 1.62 1.53 3.18 2.25 4.6l1.41 2.66c-1.52-2.82-2.91-5.72-4.3-8.62-0.36-0.76-0.71-1.52-1.07-2.3-0.08-0.14-0.21-0.28-0.29-0.42-0.04-0.1-0.08-0.18-0.13-0.27z"/>
			</g>
			<path class="edpark-logo-main-3" d="m833.37 218.95c-6.25-0.72-12.49-1.61-18.75-2.05-17.66-1.22-35.35-3.14-53.01-3.06-9.59 0.04-19.21 0.74-28.78 1.78h-0.04c-5.95 0.64-11.89 1.41-17.8 2.22-2.82 0.39-4.87 0.67-6.44 0.77h-0.04c-14.4 2.51-25.29 5.6-27.18 6.14-0.13 0.04-0.21 0.06-0.25 0.08l-0.04 0.01c-3.48 1.13-7.11 1.71-10.68 2.22-1.51 0.21-3.83-2.21-5.13-3.92-8.15-10.59-17.25-20.22-27.73-28.51-24.39-19.27-51.91-30.92-83.03-33.37-55.26-4.36-100.2 15.52-135.41 58.02-7.77 9.38-4.16 9.45-17.7 5.65-1.13-0.31-2.23-0.67-3.36-1.04h-0.03c-0.01-0.01-0.03-0.01-0.05-0.01-1-0.24-12.35-2.87-26.75-5.31-0.04 0-0.06-0.01-0.09-0.01-0.72-0.11-1.52-0.24-2.42-0.38-6.23-0.95-12.47-1.85-18.73-2.59-0.21-0.03-0.41-0.04-0.63-0.06-2.1-0.24-4.19-0.45-6.29-0.64-29.19-2.66-58.21-0.35-87.19 3.09-5.18 0.62-10.37 1.34-15.55 2.01 39.49 13.29 79.32 24.64 117.64 42.23l15.78 7.31c0.01-0.03 0.01-0.04 0.03-0.06 0.6 0.3 1.21 0.6 1.8 0.9l0.08 0.04c4.18 2.06 8.32 4 12.23 6.38 1.08 0.64 1.57 3.2 1.39 4.77-0.59 5.07-1.76 10.08-2.42 15.15-9.87 75.26 36.82 144.73 106.07 167.02 88.2 28.4 180.14-25.6 199.67-115.59 4.66-21.44 4.39-43.02 0.03-64.55-1.23-6.05-1.21-6.13 4.44-9.03 3.46-1.78 7.05-3.35 10.62-5.03l16.52-7.68c-0.01-0.01-0.01-0.03-0.01-0.04 0.82-0.38 1.64-0.74 2.46-1.1l0.1-0.05c36.94-16.55 75.8-27.7 114.31-40.11-2.63-0.91-5.13-1.31-7.64-1.6zm-293.47-47.49c54.33-0.24 101.08 32.99 116.44 60.51-42.69 14.86-81.22 36.94-115.71 66.98-34.55-29.95-73.01-52.14-115.72-66.95 14.98-27.15 61.59-60.3 114.99-60.54zm110.31 237.84c-23.17 27.38-52.81 43.95-88.45 49.18-78.58 11.52-147.4-41.06-162.51-113.91-3.78-18.21-3.94-36.54-0.35-54.84 0.35-1.74 1.15-3.41 2.11-6.2 9.11 5.77 17.64 11.18 26.37 16.71-11.84 30.39-8.56 57.93 13.77 81.13 22.46 23.34 50.01 26.78 80.53 16.43 6.82 8.4 12.05 17.99 18.89 27.54 6.43-9.55 12.47-18.53 18.6-27.63 30.64 10.39 58.43 7.16 81.09-16.41 22.37-23.24 25.42-50.8 13.73-81.12 8.56-5.47 16.93-10.82 25.43-16.24 3.92 3.95 3.54 8.7 4.04 12.82 5.17 42.27-5.78 80.05-33.25 112.54zm-200.05-63.67c6.75 20.61 28.13 33.74 49.31 29.96 4.03-0.73 6.72-0.08 8.84 3.4 1.31 2.15 2.91 4.13 4.72 6.63-17.55 9.49-45.57 4.27-62.26-12.59-18.16-18.35-21.25-47.43-11.67-63.8 3.08 2.4 6.3 4.51 8.96 7.19 0.99 0.98 1.03 3.35 0.83 5.01-0.95 8.17-1.32 16.27 1.27 24.2zm7.46-21.09c15.45 12.9 27.98 26.57 40.86 42.22-14.26 1.96-24.58-2.18-32.71-11.42-7.31-8.3-10.9-17.97-8.15-30.8zm175.14 2.71c-1.24-9.1 1.47-14.02 9.15-17.4 8.27 8.21 8.56 38.7-6.6 57.84-16.78 21.19-46.89 28.16-67.16 18.01 1.74-2.47 3.29-4.48 4.63-6.62 2.12-3.33 4.68-4.31 8.8-3.58 28.83 5.07 55.09-19.32 51.18-48.25zm-49.42 39.06c12.13-15.54 25.19-28.71 39.38-41.38 3.83 8.26 1.32 19.75-5.56 28.62-8.07 10.41-20.29 15.33-33.82 12.76zm165.48-132.14c-21.15 8.06-41.84 17.1-61.97 27.43-56.92 29.17-102.12 71.43-138.46 123.61-2 2.86-4.05 5.7-6.11 8.52-0.26 0.35-0.73 0.55-1.91 1.42-1.61-2.01-3.35-3.98-4.86-6.13-17.14-24.55-35.98-47.64-57.68-68.31-28.47-27.13-60.77-48.66-96.23-65.36-16.22-7.63-32.96-14.13-49.47-21.15-2.01-0.85-4.02-1.71-6.03-2.56 0.28-0.62 0.55-1.22 0.83-1.83 82.07 3.99 153.12 34.46 213.68 90.67 60.53-56.23 131.53-86.59 214.32-90.72-1.05 3.79-4.04 3.64-6.11 4.41z" fill="#00f"/>
		</g>
		<g transform="matrix(.27394 0 0 .27394 -38.021 6.075)" filter="url(#edpark-logo-main-0)" style="mix-blend-mode:normal">
			<path class="edpark-logo-main-2" d="m538.3 422.87c0.17 1.05 0.34 2.11 0.51 3.15 1.36 0.18 2.74 0.35 4.13 0.52-1.58-1.18-3.12-2.4-4.64-3.67z"/>
			<path class="edpark-logo-main-2" d="m540.61 79.3c-90.6 0-168.88 52.81-205.71 129.35 2.9 0.17 5.76 0.38 8.62 0.65 0.34 0.03 0.69 0.06 1.03 0.1 4.3-8.6 9.16-16.88 14.53-24.78 3.08-4.57 6.34-8.99 9.75-13.29 19.16-24.14 43.29-44.16 70.86-58.48 4.98-2.57 10.06-4.98 15.25-7.18 10.85-4.62 22.16-8.39 33.83-11.22 3.15-0.76 6.32-1.46 9.53-2.08 13.69-2.68 27.84-4.09 42.32-4.09 13.9 0 27.49 1.29 40.66 3.77 3.02 0.56 6.01 1.19 8.99 1.88 12.68 2.94 24.92 6.97 36.64 12 5.17 2.21 10.25 4.62 15.21 7.21 27.52 14.41 51.59 34.47 70.68 58.67 3.4 4.3 6.63 8.74 9.7 13.29 5.27 7.8 10.05 15.98 14.29 24.45 3.32-0.32 6.52-0.59 9.61-0.77-36.81-76.6-115.13-129.48-205.79-129.48zm221.47 173.1c-2.82 1.04-5.65 2.11-8.46 3.19 1.19 4.93 2.22 9.94 3.08 15 0.94 5.5 1.66 11.06 2.16 16.68v0.03c0.62 6.63 0.93 13.37 0.93 20.15v1.03c-0.03 4.38-0.17 8.73-0.45 13.06 0 0.04-0.01 0.08-0.01 0.13-7.31 114.43-102.45 204.96-218.72 204.96-113.02 0-206.06-85.55-217.88-195.42-0.15-1.28-0.28-2.57-0.39-3.86-0.11-1.11-0.2-2.22-0.3-3.34-0.13-1.74-0.22-3.5-0.32-5.26-0.04-0.94-0.08-1.87-0.13-2.81-0.03-0.94-0.06-1.88-0.08-2.81-0.06-1.77-0.07-3.54-0.07-5.33 0-0.86 0.01-1.71 0.01-2.59 0.06-6.16 0.38-12.27 0.94-18.3 0.52-5.65 1.25-11.23 2.21-16.74 0.84-4.92 1.84-9.77 3.01-14.56-2.81-1.08-5.64-2.15-8.46-3.19-4.37 17.62-6.69 36.06-6.69 55.03 0 126.01 102.14 228.16 228.15 228.16s228.16-102.16 228.16-228.16c0-18.99-2.32-37.43-6.69-55.05z"/>
			<path class="edpark-logo-main-2" d="m530.44 92.1c3.48 0.17 6.98 0.41 10.51 0.76-3.41-0.27-6.93-0.53-10.51-0.76z"/>
			<path class="edpark-logo-main-2" d="m529.85 92.07c0.19 0.01 0.4 0.02 0.59 0.03-0.2-0.01-0.39-0.03-0.59-0.03z"/>
			<path class="edpark-logo-main-2" d="m407.71 129.12c-1.62 1.19-3.17 2.35-4.57 3.44 1.48-1.2 3.05-2.29 4.57-3.44z"/>
			<path class="edpark-logo-main-2" d="m415.29 123.67c-2.58 1.75-5.09 3.57-7.57 5.45 2.44-1.81 5.03-3.66 7.57-5.45z"/>
			<path class="edpark-logo-main-2" d="m660.3 119.95c4.54 3.02 9.31 6.26 13.15 9.06-4.23-3.24-8.64-6.21-13.15-9.06z"/>
			<path class="edpark-logo-main-2" d="m621.57 508.08c1.81-0.72 3.6-1.48 5.35-2.28-1.87 0.8-3.73 1.59-5.35 2.28zm-31.41-182.29c-13.15 0.84-26.42 1.34-39.65 1.49-0.01-2.73-0.04-5.44-0.06-8.17-2.02 1.8-4.03 3.63-6.03 5.48l-3.82 3.56-3.84-3.56c-1.05-0.98-2.11-1.95-3.18-2.91-0.03 1.86-0.04 3.71-0.06 5.58-14.46-0.15-28.8-0.72-42.77-1.66 5.55 5.65 11.02 11.57 16.43 17.78 8.67 0.41 17.43 0.65 26.24 0.74-0.04 6.9-0.06 13.81-0.07 20.72 0 3.89-0.01 7.72-0.01 11.5 2.26 3.09 4.51 6.25 6.76 9.47 0.15 0.22 0.31 0.45 0.48 0.66 1.05-1.46 2.12-2.97 3.18-4.47 2.25-3.22 4.51-6.39 6.8-9.51 0.01-2.52 0.03-5.07 0.03-7.65 0.01-6.9 0.01-13.8-0.01-20.72 7.72-0.08 15.43-0.28 23.13-0.6 5.37-6.14 10.85-12.05 16.45-17.73zm-146.84-63.34c-1.41 6.53-2.68 13.14-3.81 19.82 4.51 3.13 8.92 6.35 13.25 9.67 1.03-7.88 2.22-15.68 3.6-23.39-4.3-2.13-8.66-4.16-13.04-6.1zm146.84 63.34c-13.15 0.84-26.42 1.34-39.65 1.49-0.01-2.73-0.04-5.44-0.06-8.17-2.02 1.8-4.03 3.63-6.03 5.48l-3.82 3.56-3.84-3.56c-1.05-0.98-2.11-1.95-3.18-2.91-0.03 1.86-0.04 3.71-0.06 5.58-14.46-0.15-28.8-0.72-42.77-1.66 5.55 5.65 11.02 11.57 16.43 17.78 8.67 0.41 17.43 0.65 26.24 0.74-0.04 6.9-0.06 13.81-0.07 20.72 0 3.89-0.01 7.72-0.01 11.5 2.26 3.09 4.51 6.25 6.76 9.47 0.15 0.22 0.31 0.45 0.48 0.66 1.05-1.46 2.12-2.97 3.18-4.47 2.25-3.22 4.51-6.39 6.8-9.51 0.01-2.52 0.03-5.07 0.03-7.65 0.01-6.9 0.01-13.8-0.01-20.72 7.72-0.08 15.43-0.28 23.13-0.6 5.37-6.14 10.85-12.05 16.45-17.73zm53.3-65.97c-4.6 1.91-9.14 3.94-13.62 6.07 1.38 7.31 2.6 14.71 3.67 22.19 4.53-3.36 9.11-6.59 13.79-9.73-1.15-6.23-2.42-12.43-3.84-18.53zm-269.01-18.75c-0.55 1.38-1.08 2.75-1.6 4.15 3.06 1.35 6.13 2.71 9.15 4.13 0.73-2.09 1.49-4.17 2.29-6.24-3.26-0.73-6.54-1.41-9.84-2.04zm247.12 267.01c1.81-0.72 3.6-1.48 5.35-2.28-1.87 0.8-3.73 1.59-5.35 2.28zm-171.92-112.01c-4.4-3.06-8.59-6.66-12.56-10.81-1.17-1.21-2.28-2.43-3.34-3.67 0.52 8.69 1.32 17.05 2.4 25.07 5.1 5.86 10.68 11.29 16.67 16.2-1.34-8.48-2.41-17.43-3.17-26.79zm140.51-70.28c-13.15 0.84-26.42 1.34-39.65 1.49-0.01-2.73-0.04-5.44-0.06-8.17-2.02 1.8-4.03 3.63-6.03 5.48l-3.82 3.56-3.84-3.56c-1.05-0.98-2.11-1.95-3.18-2.91-0.03 1.86-0.04 3.71-0.06 5.58-14.46-0.15-28.8-0.72-42.77-1.66 5.55 5.65 11.02 11.57 16.43 17.78 8.67 0.41 17.43 0.65 26.24 0.74-0.04 6.9-0.06 13.81-0.07 20.72 0 3.89-0.01 7.72-0.01 11.5 2.26 3.09 4.51 6.25 6.76 9.47 0.15 0.22 0.31 0.45 0.48 0.66 1.05-1.46 2.12-2.97 3.18-4.47 2.25-3.22 4.51-6.39 6.8-9.51 0.01-2.52 0.03-5.07 0.03-7.65 0.01-6.9 0.01-13.8-0.01-20.72 7.72-0.08 15.43-0.28 23.13-0.6 5.37-6.14 10.85-12.05 16.45-17.73zm31.41 182.29c1.81-0.72 3.6-1.48 5.35-2.28-1.87 0.8-3.73 1.59-5.35 2.28zm-171.92-112.01c-4.4-3.06-8.59-6.66-12.56-10.81-1.17-1.21-2.28-2.43-3.34-3.67 0.52 8.69 1.32 17.05 2.4 25.07 5.1 5.86 10.68 11.29 16.67 16.2-1.34-8.48-2.41-17.43-3.17-26.79zm171.92 112.01c1.81-0.72 3.6-1.48 5.35-2.28-1.87 0.8-3.73 1.59-5.35 2.28zm-171.92-112.01c-4.4-3.06-8.59-6.66-12.56-10.81-1.17-1.21-2.28-2.43-3.34-3.67 0.52 8.69 1.32 17.05 2.4 25.07 5.1 5.86 10.68 11.29 16.67 16.2-1.34-8.48-2.41-17.43-3.17-26.79zm171.92 112.01c1.81-0.72 3.6-1.48 5.35-2.28-1.87 0.8-3.73 1.59-5.35 2.28zm100.62-319.58c0.24-1.12 0.34-2.26 0.3-3.39-0.1-3.15-1.26-6.28-3.54-9.43l-4.86-6.49-4.79-5.89c2.11 2.84 3.26 5.69 3.5 8.52 0.1 1.29 0.01 2.59-0.25 3.86-18.83-23.17-42.5-42.6-69.51-56.79 0.39-1.9 0.1-3.82-0.91-5.75-1.04-1.95-2.84-3.92-5.44-5.85 8.25 3.61 16.11 7.9 23.64 12.65-2.26-1.49-4.47-2.95-6.45-4.24-10.53-6.37-21.8-11.59-33.66-15.56-12.37-4.13-25.4-6.87-38.93-8.1-13.01-1.18-26.51-0.96-40.32 0.82 17.01-1.74 33.52-1.31 49.31 1.07 11.24 1.69 22.13 4.37 32.56 7.95 1.8 1.34 3.16 2.68 4.08 4.05 1.34 1.95 1.77 3.94 1.36 5.87-26.74-11.66-56.27-18.4-87.32-18.94 30.81 1.22 60.11 8.59 86.66 20.83-1.59 3.22-5.49 6.32-11.47 9.12-23.03-15.04-48.46-25.49-75.19-29.95 25.42 5.02 49.58 16.01 71.48 31.54-6.77 2.66-15.56 4.96-26.13 6.72-13.89-17.58-29.22-30.85-45.35-38.25 13.87 7.76 27.05 21.33 39 39.22-0.17 0.01-0.35 0.04-0.52 0.07-11.13 1.49-22.87 2.28-34.5 2.4-1.21-18.65-2.56-33.07-3.98-41.7-1.01 8.63-2 23.05-2.9 41.68-11.76-0.13-23.3-0.91-33.9-2.29 11.29-17.93 23.72-31.58 36.79-39.39-15.22 7.5-29.71 20.86-42.85 38.52-10.22-1.6-19.35-3.79-26.72-6.48 21.33-15.68 44.86-26.84 69.57-32.04-26.15 4.62-51.06 15.23-73.63 30.41-1.8-0.77-3.44-1.59-4.93-2.45-4.05-2.29-6.68-4.68-7.98-7.08 26.53-12.27 55.81-19.65 86.54-20.88-31.02 0.55-60.54 7.29-87.3 18.97-0.53-2.08-0.07-4.16 1.29-6.17 0.82-1.21 1.95-2.39 3.42-3.56 9.77-3.34 19.93-5.93 30.41-7.66 13.22-2.18 26.97-3.02 41.09-2.39-9.61-0.6-19.94-0.84-31.56 0.31-11.17 1.1-23.54 3.49-37.59 8.08-4.62 1.53-9.15 3.26-13.59 5.17-8.6 3.7-16.85 8.07-24.68 13.08l-0.67 0.44c-1.98 1.36-4.2 2.92-6.46 4.53 9.15-6.2 18.85-11.64 29.09-16.12-2.16 1.71-3.74 3.49-4.69 5.3-1.04 2-1.34 4.03-0.82 6.07-27.05 14.21-50.76 33.62-69.68 56.81-0.37-1.48-0.49-2.94-0.37-4.4 0.25-3.08 1.57-6.11 3.91-9.09l-5.16 6.31-4.89 6.48c-2.29 3.15-3.53 6.37-3.61 9.6-0.04 1.31 0.1 2.61 0.44 3.92-4.74 6.76-9.08 13.79-13 21.04 1.14 0.11 2.28 0.24 3.42 0.37l0.38 0.04c3.32-5.99 6.91-11.82 10.78-17.47 2.71 4.99 8.17 9.95 16.58 14.73 3.11 1.76 6.52 3.46 10.23 5.07-0.59 1.1-1.18 2.19-1.74 3.3 3.84 0.76 7.01 1.45 9.28 1.95 0.3-0.63 0.6-1.25 0.93-1.88 4.58 1.67 9.5 3.26 14.7 4.74 0.06-0.08 0.11-0.15 0.17-0.24 0.89-1.18 1.97-2.66 3.49-4.48 2.47-2.98 4.99-5.85 7.56-8.62-6.54-1.73-12.62-3.63-18.19-5.66 15.07-26.01 33.97-48.98 55.53-67.23 8.59 3.15 19.27 5.71 31.21 7.59-5.31 8.12-10.37 16.95-15.11 26.38 3.86-1.73 7.81-3.27 11.82-4.67 3.3-7.31 6.77-14.22 10.37-20.7 12.4 1.62 25.89 2.54 39.65 2.7-0.14 3.09-0.27 6.3-0.39 9.57 0.86-0.01 1.73-0.01 2.6-0.01 2.09 0 4.2 0.04 6.34 0.13-0.17-3.32-0.34-6.55-0.52-9.68 13.62-0.15 27.32-1.07 40.35-2.81 0.2-0.03 0.39-0.06 0.6-0.08 4.22 7.17 8.25 14.88 12.07 23.08 4.5 1.76 8.94 3.74 13.31 5.93-5.58-10.86-11.59-20.97-17.96-30.13 12.35-2.05 22.64-4.75 30.55-7.87 22.11 18.1 41.47 40.92 56.89 66.83-6.42 2.52-13.76 4.89-21.97 7.04 3.5 3.81 6.89 7.88 10.25 12.24 0.32 0.42 0.65 0.82 0.96 1.12 6.86-1.94 13.1-4.01 18.66-6.2 0.34 0.66 0.67 1.32 1.01 1.98 2.53-0.6 5.4-1.25 8.53-1.88-0.6-1.14-1.22-2.28-1.84-3.4 12.41-5.79 20.5-12.23 23.81-18.92 3.89 5.72 7.52 11.61 10.85 17.67 0.18-0.01 0.35-0.04 0.52-0.06l0.34-0.03c0.91-0.1 1.81-0.2 2.7-0.28-3.96-7.34-8.31-14.43-13.06-21.24zm-326.11 9.72c-3.51-1.52-6.76-3.12-9.7-4.79-7.95-4.53-13.13-9.22-15.68-13.94 18.73-23.6 42.25-43.54 69.06-58.34 1.52 2.81 4.6 5.61 9.33 8.29 1.74 1 3.67 1.95 5.76 2.85-22.81 17.75-42.82 40.28-58.77 65.93zm292.62-0.91c-16.22-25.56-36.6-47.95-59.86-65.56 6.98-3.26 11.55-6.89 13.41-10.65 26.8 14.78 50.3 34.71 68.99 58.3-3.14 6.33-10.81 12.43-22.54 17.91zm-138.8 234.16c0.07-3.33 0.14-6.75 0.21-10.23-1.28 1.88-2.56 3.78-3.85 5.71l-5.55 8.25-4.71-6.58c-0.83-1.17-1.64-2.33-2.43-3.49 0.03 2.15 0.04 4.26 0.07 6.34-26.35-0.3-52.22-1.98-76.19-4.93 8.17 6.16 16.99 11.43 26.35 15.67 16.2 1.35 33 2.15 50.02 2.33 0.06 3.34 0.11 6.61 0.17 9.77 2.04 0.1 4.1 0.14 6.17 0.14 3.04 0 6.11-0.1 9.18-0.31 0.08-3.11 0.18-6.31 0.27-9.6 16.08-0.18 32.23-0.89 48.11-2.18 9.3-4.15 18.03-9.36 26.17-15.6-24.04 2.93-49.1 4.45-73.99 4.71zm40.26-105.68c-13.15 0.84-26.42 1.34-39.65 1.49-0.01-2.73-0.04-5.44-0.06-8.17-2.02 1.8-4.03 3.63-6.03 5.48l-3.82 3.56-3.84-3.56c-1.05-0.98-2.11-1.95-3.18-2.91-0.03 1.86-0.04 3.71-0.06 5.58-14.46-0.15-28.8-0.72-42.77-1.66 5.55 5.65 11.02 11.57 16.43 17.78 8.67 0.41 17.43 0.65 26.24 0.74-0.04 6.9-0.06 13.81-0.07 20.72 0 3.89-0.01 7.72-0.01 11.5 2.26 3.09 4.51 6.25 6.76 9.47 0.15 0.22 0.31 0.45 0.48 0.66 1.05-1.46 2.12-2.97 3.18-4.47 2.25-3.22 4.51-6.39 6.8-9.51 0.01-2.52 0.03-5.07 0.03-7.65 0.01-6.9 0.01-13.8-0.01-20.72 7.72-0.08 15.43-0.28 23.13-0.6 5.37-6.14 10.85-12.05 16.45-17.73zm-146.84-63.34c-1.41 6.53-2.68 13.14-3.81 19.82 4.51 3.13 8.92 6.35 13.25 9.67 1.03-7.88 2.22-15.68 3.6-23.39-4.3-2.13-8.66-4.16-13.04-6.1zm6.33 133.62c-4.4-3.06-8.59-6.66-12.56-10.81-1.17-1.21-2.28-2.43-3.34-3.67 0.52 8.69 1.32 17.05 2.4 25.07 5.1 5.86 10.68 11.29 16.67 16.2-1.34-8.48-2.41-17.43-3.17-26.79zm-47.7-82.96c-0.13 5.73 0.11 11.48 0.73 17.22 4.01 0.91 8.11 1.78 12.31 2.61 0.01-5.41 0.59-10.96 1.76-16.67-5.07-0.98-10.02-2.03-14.8-3.16zm242.36 72.1c-2.29 2.39-4.67 4.6-7.1 6.63-0.73 9.13-1.76 17.89-3.06 26.22 4.1-3.84 8.02-7.97 11.76-12.4 2.14-2.53 4.19-5.1 6.13-7.72 0.96-7.97 1.63-16.23 2.02-24.78-2.78 4.16-6.02 8.18-9.75 12.05zm115.29-85.01c-0.06-1.57-0.13-3.16-0.21-4.72-0.14-2.57-0.31-5.26-0.52-8.18v-0.03c0.35-1.7 0.45-3.43 0.28-5.14l-1.98-14.94-0.34-1.87c0.24 1.76 0.2 3.51-0.13 5.27-0.03 0.15-0.06 0.3-0.08 0.45-0.93-5.17-2.05-10.27-3.36-15.3-0.86 0.32-1.73 0.66-2.59 1 1.73 6.23 3.16 12.55 4.3 18.96-3.92 7.97-13.58 15.64-28.35 22.54-1.46-9.65-3.47-19.2-6.02-28.56l-8.8 4.09c2.38 9.32 4.26 18.8 5.64 28.39-4.95 1.95-10.34 3.81-16.16 5.59 0.3 5.76 0.3 11.48-0.01 17.16 6.52-1.95 12.54-4.02 18.02-6.17 0.53 6.83 0.82 13.7 0.8 20.6-0.06 24.57-3.67 47.45-10.27 68.08-12.77 5.02-28.6 9.5-47.16 13.24-4.71 5.51-9.78 10.71-15.22 15.54 23.12-3.98 42.41-9.12 57.4-15.01-10.17 25.06-25.03 46.22-43.37 62.3-11.47 4.51-26.38 8.42-44.3 11.41 11.24-13.87 20.45-32.79 26.9-55.77-1.04 0.87-2.11 1.74-3.18 2.6-4.54 3.63-9.26 7-14.14 10.09-5.28 18.13-12.18 33.21-20.34 44.69-0.3 0.04-0.59 0.08-0.87 0.13-18.87 2.53-38.75 3.85-58.49 4.06 0.53-6.66 1-14.69 1.43-23.95-2.54 0.13-5.1 0.18-7.66 0.18h-0.01c-2.11 0-4.2-0.04-6.31-0.13 0.28 9.25 0.58 17.24 0.91 23.89-19.93-0.21-39.49-1.56-57.45-3.89-7.21-10.81-13.35-24.85-18.14-41.64-5.55-3.19-10.85-6.7-15.91-10.5 5.89 20.73 14 37.86 23.78 50.66-17.3-2.73-32.79-6.42-45.25-10.99-17.76-15.95-32.13-37-41.92-62.01 14.74 5.41 32.63 9.91 52.55 13.44-5.42-4.88-10.5-10.09-15.18-15.61-15.74-3.22-29.99-7.1-42.16-11.55-6.34-20.59-9.78-43.44-9.73-68.01 0.01-6.89 0.3-13.76 0.84-20.6 4.17 1.53 8.57 2.99 13.18 4.38-0.28-5.66-0.24-11.38 0.11-17.13-3.99-1.24-7.81-2.52-11.45-3.85 1.32-9.28 3.11-18.45 5.35-27.49l-0.94-0.46-8.66-4.01c-2.45 9.16-4.38 18.49-5.82 27.94-4.43-1.93-8.5-3.94-12.2-6.04-10.01-5.68-16.51-11.59-19.73-17.53 1.15-6.38 2.6-12.68 4.31-18.87-0.93-0.38-1.87-0.74-2.8-1.11-1.32 5.02-2.46 10.1-3.4 15.25-0.07-0.31-0.14-0.6-0.2-0.91-0.42-2.12-0.42-4.24-0.04-6.34l-0.46 2.64-2.05 14.93c-0.18 1.84-0.07 3.67 0.35 5.51 0.03 0.14 0.06 0.3 0.1 0.44-0.6 5.89-0.94 11.86-1.04 17.86 0 0.87-0.01 1.73-0.01 2.59 0 1.78 0.01 3.56 0.07 5.33 0.03 0.93 0.06 1.87 0.08 2.81 0.04 0.94 0.08 1.87 0.13 2.81 0.1 1.76 0.2 3.51 0.32 5.26 0.1 1.12 0.18 2.23 0.3 3.34 0.13 1.29 0.25 2.59 0.39 3.86 1.03 8.99 2.63 17.81 4.79 26.42 1.94 6.58 4.46 15.37 6.72 21.84l3.01 7.73c1.35 2.97 2.91 6.48 4.5 9.92 3.08 5.38 8.99 10.72 18.06 15.88 3.44 1.95 7.24 3.82 11.34 5.62 10.37 25.23 25.58 46.62 44.38 62.98-7.18-3.42-11.14-5.31-15.98-9.32l1.41 1.17c3.94 3.02 9.11 7.17 13.15 10.03 1.26 0.87 2.64 1.74 4.15 2.6 2.33 1.32 4.89 2.59 7.66 3.79 8.19 5.93 16.95 11 26.2 15.11l8.35 3.49 1.57 0.59c-4.85-1.93-9.57-4.13-14.15-6.65-5.42-2.95-10.64-6.31-15.64-10.02 11.43 4.19 25.62 7.58 41.49 10.08 9.64 10.19 20.62 16.54 32.53 18.44l2.26 0.35 3.22 0.45 0.32 0.04c-10.46-2.45-16.95-4.48-28.94-17.93 16.47 2.14 34.4 3.37 52.67 3.57 0.69 10.53 1.49 16.19 2.38 16.2h4.81c1.28-0.04 2.45-5.71 3.49-16.2 18.09-0.2 36.3-1.41 53.6-3.72 0.27-0.04 0.53-0.08 0.8-0.11-9.02 10.25-19.31 16.46-30.45 18.02l7.15-1.12 0.46-0.07c0.2-0.06 0.39-0.11 0.59-0.17 3.51-0.74 6.94-1.84 10.29-3.27 0.42-0.17 0.84-0.35 1.26-0.53 0.18-0.08 0.37-0.17 0.56-0.25 5.93-2.59 12.21-6.54 19.98-14.08 16.43-2.74 30.09-6.32 40.6-10.46-7.63 5.55-15.74 10.3-24.29 14.17 2.5-1.07 5.05-2.18 7.15-3.16l0.86-0.41c7.7-3.72 15.07-8.08 22.02-13.06 3.58-1.67 6.69-3.42 9.29-5.21 4.33-3.26 10.16-7.52 14.36-10.96-4.81 3.5-5.94 4.33-12.99 7.84 19.28-16.49 34.91-37.97 45.62-63.27 13.35-6.23 22.15-13.15 26-20.34-0.51 1.12-1.01 2.28-1.5 3.29 0.63-1.29 1.25-2.6 1.87-3.91 0.59-1.28 1.05-2.61 1.62-3.91 1.86-4.3 3.7-8.78 5.24-12.52l0.58-1.55c2.61-7.81 5.57-18.4 7.69-26.34l0.73-3.36c0.13-0.74 0.24-1.43 0.35-2.15 1.21-6.18 2.16-12.45 2.8-18.82 0.24-2.09 0.45-4.17 0.6-6.28 0-0.04 0.01-0.08 0.01-0.13 0.31-4.09 0.46-8.31 0.45-13.06 0-2.59-0.07-5.33-0.18-8.28zm-405.2 98.78c-9.6-5.45-15.82-11.12-18.92-16.81-7.9-21.6-12.18-45.01-12.13-69.58 0.01-6.89 0.37-13.72 1.04-20.48 3.26 6 9.82 11.97 19.94 17.72 3.74 2.12 7.86 4.16 12.33 6.1-0.58 6.83-0.89 13.7-0.9 20.59-0.04 24.57 3.6 47.5 10.32 68.23-4.25-1.83-8.14-3.76-11.68-5.77zm391.35-16.92c-3.75 7.63-13 14.98-27.15 21.59 6.94-20.77 10.75-43.74 10.79-68.29 0.01-6.9-0.27-13.76-0.84-20.59 14.94-6.97 24.69-14.73 28.66-22.77 0.66 6.75 0.98 13.58 0.97 20.46-0.04 24.57-4.42 47.98-12.43 69.6zm-99.71-155.45c-3.4-4.43-7.66-9.02-12.65-13.53-1.11 0.2-2.23 0.39-3.37 0.58-0.6-1.69-1.21-3.36-1.84-5.03-5.02-4.08-10.64-8.01-16.78-11.65 2.15 6.03 4.2 12.23 6.13 18.57-0.34 0.06-0.67 0.1-1.01 0.14-21.88 2.95-44.94 4.48-67.85 4.72-0.44-15.22-0.96-29.7-1.52-43.15-2.19-0.11-4.41-0.17-6.66-0.17h-0.56c-1.18 0-2.38 0.03-3.54 0.07-0.45 13.48-0.84 28-1.21 43.24-23.13-0.25-45.82-1.8-66.67-4.53 2.18-7.49 4.5-14.8 6.96-21.88-5.35 2.88-10.36 5.99-14.97 9.23-1.34 3.6-2.64 7.25-3.89 10.95-2.78-0.44-5.54-0.9-8.24-1.38-5.07 4.5-9.4 9.06-12.85 13.46 5.26 1.04 10.71 2.01 16.32 2.9-0.65 2.15-1.26 4.31-1.87 6.49 4.03 1.71 8.04 3.51 12 5.38 0.79-3.39 1.6-6.75 2.45-10.08 22.02 2.87 45.98 4.51 70.42 4.78-0.34 16.2-0.63 33.1-0.86 50.34 2.23 1.78 4.46 3.61 6.65 5.47 3.11-2.63 6.24-5.2 9.43-7.72-0.24-16.47-0.58-32.59-0.97-48.09 24.19-0.25 48.56-1.88 71.67-4.99 0.37-0.04 0.72-0.1 1.07-0.14 0.73 2.73 1.43 5.48 2.12 8.25 4.15-1.88 8.32-3.68 12.55-5.41-0.48-1.62-0.97-3.23-1.48-4.83 3.78-0.63 7.47-1.29 11.02-1.99zm-2.58 33.21c-4.6 1.91-9.14 3.94-13.62 6.07 1.38 7.31 2.6 14.71 3.67 22.19 4.53-3.36 9.11-6.59 13.79-9.73-1.15-6.23-2.42-12.43-3.84-18.53zm35.58 53.81c-4.61 1.07-9.4 2.08-14.38 3.04 1.12 5.72 1.69 11.27 1.66 16.67 4.13-0.8 8.15-1.63 12.03-2.5 0.58-5.64 0.8-11.38 0.69-17.21zm31.71-73.33c-3.05 0.53-6.09 1.11-9.09 1.74 0.66 1.7 1.31 3.4 1.93 5.12 2.77-1.29 5.55-2.57 8.38-3.82-0.41-1.03-0.82-2.04-1.22-3.04zm-261.1 155.77c-4.4-3.06-8.59-6.66-12.56-10.81-1.17-1.21-2.28-2.43-3.34-3.67 0.52 8.69 1.32 17.05 2.4 25.07 5.1 5.86 10.68 11.29 16.67 16.2-1.34-8.48-2.41-17.43-3.17-26.79zm171.92 112.01c1.81-0.72 3.6-1.48 5.35-2.28-1.87 0.8-3.73 1.59-5.35 2.28zm-171.92-112.01c-4.4-3.06-8.59-6.66-12.56-10.81-1.17-1.21-2.28-2.43-3.34-3.67 0.52 8.69 1.32 17.05 2.4 25.07 5.1 5.86 10.68 11.29 16.67 16.2-1.34-8.48-2.41-17.43-3.17-26.79zm171.92 112.01c1.81-0.72 3.6-1.48 5.35-2.28-1.87 0.8-3.73 1.59-5.35 2.28zm-171.92-112.01c-4.4-3.06-8.59-6.66-12.56-10.81-1.17-1.21-2.28-2.43-3.34-3.67 0.52 8.69 1.32 17.05 2.4 25.07 5.1 5.86 10.68 11.29 16.67 16.2-1.34-8.48-2.41-17.43-3.17-26.79zm171.92 112.01c1.81-0.72 3.6-1.48 5.35-2.28-1.87 0.8-3.73 1.59-5.35 2.28zm21.89-248.26c-4.6 1.91-9.14 3.94-13.62 6.07 1.38 7.31 2.6 14.71 3.67 22.19 4.53-3.36 9.11-6.59 13.79-9.73-1.15-6.23-2.42-12.43-3.84-18.53zm-53.3 65.97c-13.15 0.84-26.42 1.34-39.65 1.49-0.01-2.73-0.04-5.44-0.06-8.17-2.02 1.8-4.03 3.63-6.03 5.48l-3.82 3.56-3.84-3.56c-1.05-0.98-2.11-1.95-3.18-2.91-0.03 1.86-0.04 3.71-0.06 5.58-14.46-0.15-28.8-0.72-42.77-1.66 5.55 5.65 11.02 11.57 16.43 17.78 8.67 0.41 17.43 0.65 26.24 0.74-0.04 6.9-0.06 13.81-0.07 20.72 0 3.89-0.01 7.72-0.01 11.5 2.26 3.09 4.51 6.25 6.76 9.47 0.15 0.22 0.31 0.45 0.48 0.66 1.05-1.46 2.12-2.97 3.18-4.47 2.25-3.22 4.51-6.39 6.8-9.51 0.01-2.52 0.03-5.07 0.03-7.65 0.01-6.9 0.01-13.8-0.01-20.72 7.72-0.08 15.43-0.28 23.13-0.6 5.37-6.14 10.85-12.05 16.45-17.73zm-140.51 70.28c-4.4-3.06-8.59-6.66-12.56-10.81-1.17-1.21-2.28-2.43-3.34-3.67 0.52 8.69 1.32 17.05 2.4 25.07 5.1 5.86 10.68 11.29 16.67 16.2-1.34-8.48-2.41-17.43-3.17-26.79zm171.92 112.01c1.81-0.72 3.6-1.48 5.35-2.28-1.87 0.8-3.73 1.59-5.35 2.28zm21.89-248.26c-4.6 1.91-9.14 3.94-13.62 6.07 1.38 7.31 2.6 14.71 3.67 22.19 4.53-3.36 9.11-6.59 13.79-9.73-1.15-6.23-2.42-12.43-3.84-18.53z"/>
			<path class="edpark-logo-main-2" d="m341.32 396.43c0.68 1.47 1.42 2.9 2.13 4.35 0.77 1.62 1.53 3.18 2.25 4.6l1.41 2.66c-1.52-2.82-2.91-5.72-4.3-8.62-0.36-0.76-0.71-1.52-1.07-2.3-0.08-0.14-0.21-0.28-0.29-0.42-0.04-0.1-0.08-0.18-0.13-0.27z"/>
			<path class="edpark-logo-main-3" d="m833.37 218.95c-6.25-0.72-12.49-1.61-18.75-2.05-17.66-1.22-35.35-3.14-53.01-3.06-9.59 0.04-19.21 0.74-28.78 1.78h-0.04c-5.95 0.64-11.89 1.41-17.8 2.22-2.82 0.39-4.87 0.67-6.44 0.77h-0.04c-14.4 2.51-25.29 5.6-27.18 6.14-0.13 0.04-0.21 0.06-0.25 0.08l-0.04 0.01c-3.48 1.13-7.11 1.71-10.68 2.22-1.51 0.21-3.83-2.21-5.13-3.92-8.15-10.59-17.25-20.22-27.73-28.51-24.39-19.27-51.91-30.92-83.03-33.37-55.26-4.36-100.2 15.52-135.41 58.02-7.77 9.38-4.16 9.45-17.7 5.65-1.13-0.31-2.23-0.67-3.36-1.04h-0.03c-0.01-0.01-0.03-0.01-0.05-0.01-1-0.24-12.35-2.87-26.75-5.31-0.04 0-0.06-0.01-0.09-0.01-0.72-0.11-1.52-0.24-2.42-0.38-6.23-0.95-12.47-1.85-18.73-2.59-0.21-0.03-0.41-0.04-0.63-0.06-2.1-0.24-4.19-0.45-6.29-0.64-29.19-2.66-58.21-0.35-87.19 3.09-5.18 0.62-10.37 1.34-15.55 2.01 39.49 13.29 79.32 24.64 117.64 42.23l15.78 7.31c0.01-0.03 0.01-0.04 0.03-0.06 0.6 0.3 1.21 0.6 1.8 0.9l0.08 0.04c4.18 2.06 8.32 4 12.23 6.38 1.08 0.64 1.57 3.2 1.39 4.77-0.59 5.07-1.76 10.08-2.42 15.15-9.87 75.26 36.82 144.73 106.07 167.02 88.2 28.4 180.14-25.6 199.67-115.59 4.66-21.44 4.39-43.02 0.03-64.55-1.23-6.05-1.21-6.13 4.44-9.03 3.46-1.78 7.05-3.35 10.62-5.03l16.52-7.68c-0.01-0.01-0.01-0.03-0.01-0.04 0.82-0.38 1.64-0.74 2.46-1.1l0.1-0.05c36.94-16.55 75.8-27.7 114.31-40.11-2.63-0.91-5.13-1.31-7.64-1.6zm-293.47-47.49c54.33-0.24 101.08 32.99 116.44 60.51-42.69 14.86-81.22 36.94-115.71 66.98-34.55-29.95-73.01-52.14-115.72-66.95 14.98-27.15 61.59-60.3 114.99-60.54zm110.31 237.84c-23.17 27.38-52.81 43.95-88.45 49.18-78.58 11.52-147.4-41.06-162.51-113.91-3.78-18.21-3.94-36.54-0.35-54.84 0.35-1.74 1.15-3.41 2.11-6.2 9.11 5.77 17.64 11.18 26.37 16.71-11.84 30.39-8.56 57.93 13.77 81.13 22.46 23.34 50.01 26.78 80.53 16.43 6.82 8.4 12.05 17.99 18.89 27.54 6.43-9.55 12.47-18.53 18.6-27.63 30.64 10.39 58.43 7.16 81.09-16.41 22.37-23.24 25.42-50.8 13.73-81.12 8.56-5.47 16.93-10.82 25.43-16.24 3.92 3.95 3.54 8.7 4.04 12.82 5.17 42.27-5.78 80.05-33.25 112.54zm-200.05-63.67c6.75 20.61 28.13 33.74 49.31 29.96 4.03-0.73 6.72-0.08 8.84 3.4 1.31 2.15 2.91 4.13 4.72 6.63-17.55 9.49-45.57 4.27-62.26-12.59-18.16-18.35-21.25-47.43-11.67-63.8 3.08 2.4 6.3 4.51 8.96 7.19 0.99 0.98 1.03 3.35 0.83 5.01-0.95 8.17-1.32 16.27 1.27 24.2zm7.46-21.09c15.45 12.9 27.98 26.57 40.86 42.22-14.26 1.96-24.58-2.18-32.71-11.42-7.31-8.3-10.9-17.97-8.15-30.8zm175.14 2.71c-1.24-9.1 1.47-14.02 9.15-17.4 8.27 8.21 8.56 38.7-6.6 57.84-16.78 21.19-46.89 28.16-67.16 18.01 1.74-2.47 3.29-4.48 4.63-6.62 2.12-3.33 4.68-4.31 8.8-3.58 28.83 5.07 55.09-19.32 51.18-48.25zm-49.42 39.06c12.13-15.54 25.19-28.71 39.38-41.38 3.83 8.26 1.32 19.75-5.56 28.62-8.07 10.41-20.29 15.33-33.82 12.76zm165.48-132.14c-21.15 8.06-41.84 17.1-61.97 27.43-56.92 29.17-102.12 71.43-138.46 123.61-2 2.86-4.05 5.7-6.11 8.52-0.26 0.35-0.73 0.55-1.91 1.42-1.61-2.01-3.35-3.98-4.86-6.13-17.14-24.55-35.98-47.64-57.68-68.31-28.47-27.13-60.77-48.66-96.23-65.36-16.22-7.63-32.96-14.13-49.47-21.15-2.01-0.85-4.02-1.71-6.03-2.56 0.28-0.62 0.55-1.22 0.83-1.83 82.07 3.99 153.12 34.46 213.68 90.67 60.53-56.23 131.53-86.59 214.32-90.72-1.05 3.79-4.04 3.64-6.11 4.41z"/>
		</g>
		<g transform="matrix(.27394 0 0 .27394 -38.021 6.075)">
			<path class="edpark-logo-main-2" d="m538.3 422.87c0.17 1.05 0.34 2.11 0.51 3.15 1.36 0.18 2.74 0.35 4.13 0.52-1.58-1.18-3.12-2.4-4.64-3.67z"/>
			<path class="edpark-logo-main-2" d="m540.61 79.3c-90.6 0-168.88 52.81-205.71 129.35 2.9 0.17 5.76 0.38 8.62 0.65 0.34 0.03 0.69 0.06 1.03 0.1 4.3-8.6 9.16-16.88 14.53-24.78 3.08-4.57 6.34-8.99 9.75-13.29 19.16-24.14 43.29-44.16 70.86-58.48 4.98-2.57 10.06-4.98 15.25-7.18 10.85-4.62 22.16-8.39 33.83-11.22 3.15-0.76 6.32-1.46 9.53-2.08 13.69-2.68 27.84-4.09 42.32-4.09 13.9 0 27.49 1.29 40.66 3.77 3.02 0.56 6.01 1.19 8.99 1.88 12.68 2.94 24.92 6.97 36.64 12 5.17 2.21 10.25 4.62 15.21 7.21 27.52 14.41 51.59 34.47 70.68 58.67 3.4 4.3 6.63 8.74 9.7 13.29 5.27 7.8 10.05 15.98 14.29 24.45 3.32-0.32 6.52-0.59 9.61-0.77-36.81-76.6-115.13-129.48-205.79-129.48zm221.47 173.1c-2.82 1.04-5.65 2.11-8.46 3.19 1.19 4.93 2.22 9.94 3.08 15 0.94 5.5 1.66 11.06 2.16 16.68v0.03c0.62 6.63 0.93 13.37 0.93 20.15v1.03c-0.03 4.38-0.17 8.73-0.45 13.06 0 0.04-0.01 0.08-0.01 0.13-7.31 114.43-102.45 204.96-218.72 204.96-113.02 0-206.06-85.55-217.88-195.42-0.15-1.28-0.28-2.57-0.39-3.86-0.11-1.11-0.2-2.22-0.3-3.34-0.13-1.74-0.22-3.5-0.32-5.26-0.04-0.94-0.08-1.87-0.13-2.81-0.03-0.94-0.06-1.88-0.08-2.81-0.06-1.77-0.07-3.54-0.07-5.33 0-0.86 0.01-1.71 0.01-2.59 0.06-6.16 0.38-12.27 0.94-18.3 0.52-5.65 1.25-11.23 2.21-16.74 0.84-4.92 1.84-9.77 3.01-14.56-2.81-1.08-5.64-2.15-8.46-3.19-4.37 17.62-6.69 36.06-6.69 55.03 0 126.01 102.14 228.16 228.15 228.16s228.16-102.16 228.16-228.16c0-18.99-2.32-37.43-6.69-55.05z"/>
			<path class="edpark-logo-main-2" d="m530.44 92.1c3.48 0.17 6.98 0.41 10.51 0.76-3.41-0.27-6.93-0.53-10.51-0.76z"/>
			<path class="edpark-logo-main-2" d="m529.85 92.07c0.19 0.01 0.4 0.02 0.59 0.03-0.2-0.01-0.39-0.03-0.59-0.03z"/>
			<path class="edpark-logo-main-2" d="m407.71 129.12c-1.62 1.19-3.17 2.35-4.57 3.44 1.48-1.2 3.05-2.29 4.57-3.44z"/>
			<path class="edpark-logo-main-2" d="m415.29 123.67c-2.58 1.75-5.09 3.57-7.57 5.45 2.44-1.81 5.03-3.66 7.57-5.45z"/>
			<path class="edpark-logo-main-2" d="m660.3 119.95c4.54 3.02 9.31 6.26 13.15 9.06-4.23-3.24-8.64-6.21-13.15-9.06z"/>
			<path class="edpark-logo-main-2" d="m621.57 508.08c1.81-0.72 3.6-1.48 5.35-2.28-1.87 0.8-3.73 1.59-5.35 2.28zm-31.41-182.29c-13.15 0.84-26.42 1.34-39.65 1.49-0.01-2.73-0.04-5.44-0.06-8.17-2.02 1.8-4.03 3.63-6.03 5.48l-3.82 3.56-3.84-3.56c-1.05-0.98-2.11-1.95-3.18-2.91-0.03 1.86-0.04 3.71-0.06 5.58-14.46-0.15-28.8-0.72-42.77-1.66 5.55 5.65 11.02 11.57 16.43 17.78 8.67 0.41 17.43 0.65 26.24 0.74-0.04 6.9-0.06 13.81-0.07 20.72 0 3.89-0.01 7.72-0.01 11.5 2.26 3.09 4.51 6.25 6.76 9.47 0.15 0.22 0.31 0.45 0.48 0.66 1.05-1.46 2.12-2.97 3.18-4.47 2.25-3.22 4.51-6.39 6.8-9.51 0.01-2.52 0.03-5.07 0.03-7.65 0.01-6.9 0.01-13.8-0.01-20.72 7.72-0.08 15.43-0.28 23.13-0.6 5.37-6.14 10.85-12.05 16.45-17.73zm-146.84-63.34c-1.41 6.53-2.68 13.14-3.81 19.82 4.51 3.13 8.92 6.35 13.25 9.67 1.03-7.88 2.22-15.68 3.6-23.39-4.3-2.13-8.66-4.16-13.04-6.1zm146.84 63.34c-13.15 0.84-26.42 1.34-39.65 1.49-0.01-2.73-0.04-5.44-0.06-8.17-2.02 1.8-4.03 3.63-6.03 5.48l-3.82 3.56-3.84-3.56c-1.05-0.98-2.11-1.95-3.18-2.91-0.03 1.86-0.04 3.71-0.06 5.58-14.46-0.15-28.8-0.72-42.77-1.66 5.55 5.65 11.02 11.57 16.43 17.78 8.67 0.41 17.43 0.65 26.24 0.74-0.04 6.9-0.06 13.81-0.07 20.72 0 3.89-0.01 7.72-0.01 11.5 2.26 3.09 4.51 6.25 6.76 9.47 0.15 0.22 0.31 0.45 0.48 0.66 1.05-1.46 2.12-2.97 3.18-4.47 2.25-3.22 4.51-6.39 6.8-9.51 0.01-2.52 0.03-5.07 0.03-7.65 0.01-6.9 0.01-13.8-0.01-20.72 7.72-0.08 15.43-0.28 23.13-0.6 5.37-6.14 10.85-12.05 16.45-17.73zm53.3-65.97c-4.6 1.91-9.14 3.94-13.62 6.07 1.38 7.31 2.6 14.71 3.67 22.19 4.53-3.36 9.11-6.59 13.79-9.73-1.15-6.23-2.42-12.43-3.84-18.53zm-269.01-18.75c-0.55 1.38-1.08 2.75-1.6 4.15 3.06 1.35 6.13 2.71 9.15 4.13 0.73-2.09 1.49-4.17 2.29-6.24-3.26-0.73-6.54-1.41-9.84-2.04zm247.12 267.01c1.81-0.72 3.6-1.48 5.35-2.28-1.87 0.8-3.73 1.59-5.35 2.28zm-171.92-112.01c-4.4-3.06-8.59-6.66-12.56-10.81-1.17-1.21-2.28-2.43-3.34-3.67 0.52 8.69 1.32 17.05 2.4 25.07 5.1 5.86 10.68 11.29 16.67 16.2-1.34-8.48-2.41-17.43-3.17-26.79zm140.51-70.28c-13.15 0.84-26.42 1.34-39.65 1.49-0.01-2.73-0.04-5.44-0.06-8.17-2.02 1.8-4.03 3.63-6.03 5.48l-3.82 3.56-3.84-3.56c-1.05-0.98-2.11-1.95-3.18-2.91-0.03 1.86-0.04 3.71-0.06 5.58-14.46-0.15-28.8-0.72-42.77-1.66 5.55 5.65 11.02 11.57 16.43 17.78 8.67 0.41 17.43 0.65 26.24 0.74-0.04 6.9-0.06 13.81-0.07 20.72 0 3.89-0.01 7.72-0.01 11.5 2.26 3.09 4.51 6.25 6.76 9.47 0.15 0.22 0.31 0.45 0.48 0.66 1.05-1.46 2.12-2.97 3.18-4.47 2.25-3.22 4.51-6.39 6.8-9.51 0.01-2.52 0.03-5.07 0.03-7.65 0.01-6.9 0.01-13.8-0.01-20.72 7.72-0.08 15.43-0.28 23.13-0.6 5.37-6.14 10.85-12.05 16.45-17.73zm31.41 182.29c1.81-0.72 3.6-1.48 5.35-2.28-1.87 0.8-3.73 1.59-5.35 2.28zm-171.92-112.01c-4.4-3.06-8.59-6.66-12.56-10.81-1.17-1.21-2.28-2.43-3.34-3.67 0.52 8.69 1.32 17.05 2.4 25.07 5.1 5.86 10.68 11.29 16.67 16.2-1.34-8.48-2.41-17.43-3.17-26.79zm171.92 112.01c1.81-0.72 3.6-1.48 5.35-2.28-1.87 0.8-3.73 1.59-5.35 2.28zm-171.92-112.01c-4.4-3.06-8.59-6.66-12.56-10.81-1.17-1.21-2.28-2.43-3.34-3.67 0.52 8.69 1.32 17.05 2.4 25.07 5.1 5.86 10.68 11.29 16.67 16.2-1.34-8.48-2.41-17.43-3.17-26.79zm171.92 112.01c1.81-0.72 3.6-1.48 5.35-2.28-1.87 0.8-3.73 1.59-5.35 2.28zm100.62-319.58c0.24-1.12 0.34-2.26 0.3-3.39-0.1-3.15-1.26-6.28-3.54-9.43l-4.86-6.49-4.79-5.89c2.11 2.84 3.26 5.69 3.5 8.52 0.1 1.29 0.01 2.59-0.25 3.86-18.83-23.17-42.5-42.6-69.51-56.79 0.39-1.9 0.1-3.82-0.91-5.75-1.04-1.95-2.84-3.92-5.44-5.85 8.25 3.61 16.11 7.9 23.64 12.65-2.26-1.49-4.47-2.95-6.45-4.24-10.53-6.37-21.8-11.59-33.66-15.56-12.37-4.13-25.4-6.87-38.93-8.1-13.01-1.18-26.51-0.96-40.32 0.82 17.01-1.74 33.52-1.31 49.31 1.07 11.24 1.69 22.13 4.37 32.56 7.95 1.8 1.34 3.16 2.68 4.08 4.05 1.34 1.95 1.77 3.94 1.36 5.87-26.74-11.66-56.27-18.4-87.32-18.94 30.81 1.22 60.11 8.59 86.66 20.83-1.59 3.22-5.49 6.32-11.47 9.12-23.03-15.04-48.46-25.49-75.19-29.95 25.42 5.02 49.58 16.01 71.48 31.54-6.77 2.66-15.56 4.96-26.13 6.72-13.89-17.58-29.22-30.85-45.35-38.25 13.87 7.76 27.05 21.33 39 39.22-0.17 0.01-0.35 0.04-0.52 0.07-11.13 1.49-22.87 2.28-34.5 2.4-1.21-18.65-2.56-33.07-3.98-41.7-1.01 8.63-2 23.05-2.9 41.68-11.76-0.13-23.3-0.91-33.9-2.29 11.29-17.93 23.72-31.58 36.79-39.39-15.22 7.5-29.71 20.86-42.85 38.52-10.22-1.6-19.35-3.79-26.72-6.48 21.33-15.68 44.86-26.84 69.57-32.04-26.15 4.62-51.06 15.23-73.63 30.41-1.8-0.77-3.44-1.59-4.93-2.45-4.05-2.29-6.68-4.68-7.98-7.08 26.53-12.27 55.81-19.65 86.54-20.88-31.02 0.55-60.54 7.29-87.3 18.97-0.53-2.08-0.07-4.16 1.29-6.17 0.82-1.21 1.95-2.39 3.42-3.56 9.77-3.34 19.93-5.93 30.41-7.66 13.22-2.18 26.97-3.02 41.09-2.39-9.61-0.6-19.94-0.84-31.56 0.31-11.17 1.1-23.54 3.49-37.59 8.08-4.62 1.53-9.15 3.26-13.59 5.17-8.6 3.7-16.85 8.07-24.68 13.08l-0.67 0.44c-1.98 1.36-4.2 2.92-6.46 4.53 9.15-6.2 18.85-11.64 29.09-16.12-2.16 1.71-3.74 3.49-4.69 5.3-1.04 2-1.34 4.03-0.82 6.07-27.05 14.21-50.76 33.62-69.68 56.81-0.37-1.48-0.49-2.94-0.37-4.4 0.25-3.08 1.57-6.11 3.91-9.09l-5.16 6.31-4.89 6.48c-2.29 3.15-3.53 6.37-3.61 9.6-0.04 1.31 0.1 2.61 0.44 3.92-4.74 6.76-9.08 13.79-13 21.04 1.14 0.11 2.28 0.24 3.42 0.37l0.38 0.04c3.32-5.99 6.91-11.82 10.78-17.47 2.71 4.99 8.17 9.95 16.58 14.73 3.11 1.76 6.52 3.46 10.23 5.07-0.59 1.1-1.18 2.19-1.74 3.3 3.84 0.76 7.01 1.45 9.28 1.95 0.3-0.63 0.6-1.25 0.93-1.88 4.58 1.67 9.5 3.26 14.7 4.74 0.06-0.08 0.11-0.15 0.17-0.24 0.89-1.18 1.97-2.66 3.49-4.48 2.47-2.98 4.99-5.85 7.56-8.62-6.54-1.73-12.62-3.63-18.19-5.66 15.07-26.01 33.97-48.98 55.53-67.23 8.59 3.15 19.27 5.71 31.21 7.59-5.31 8.12-10.37 16.95-15.11 26.38 3.86-1.73 7.81-3.27 11.82-4.67 3.3-7.31 6.77-14.22 10.37-20.7 12.4 1.62 25.89 2.54 39.65 2.7-0.14 3.09-0.27 6.3-0.39 9.57 0.86-0.01 1.73-0.01 2.6-0.01 2.09 0 4.2 0.04 6.34 0.13-0.17-3.32-0.34-6.55-0.52-9.68 13.62-0.15 27.32-1.07 40.35-2.81 0.2-0.03 0.39-0.06 0.6-0.08 4.22 7.17 8.25 14.88 12.07 23.08 4.5 1.76 8.94 3.74 13.31 5.93-5.58-10.86-11.59-20.97-17.96-30.13 12.35-2.05 22.64-4.75 30.55-7.87 22.11 18.1 41.47 40.92 56.89 66.83-6.42 2.52-13.76 4.89-21.97 7.04 3.5 3.81 6.89 7.88 10.25 12.24 0.32 0.42 0.65 0.82 0.96 1.12 6.86-1.94 13.1-4.01 18.66-6.2 0.34 0.66 0.67 1.32 1.01 1.98 2.53-0.6 5.4-1.25 8.53-1.88-0.6-1.14-1.22-2.28-1.84-3.4 12.41-5.79 20.5-12.23 23.81-18.92 3.89 5.72 7.52 11.61 10.85 17.67 0.18-0.01 0.35-0.04 0.52-0.06l0.34-0.03c0.91-0.1 1.81-0.2 2.7-0.28-3.96-7.34-8.31-14.43-13.06-21.24zm-326.11 9.72c-3.51-1.52-6.76-3.12-9.7-4.79-7.95-4.53-13.13-9.22-15.68-13.94 18.73-23.6 42.25-43.54 69.06-58.34 1.52 2.81 4.6 5.61 9.33 8.29 1.74 1 3.67 1.95 5.76 2.85-22.81 17.75-42.82 40.28-58.77 65.93zm292.62-0.91c-16.22-25.56-36.6-47.95-59.86-65.56 6.98-3.26 11.55-6.89 13.41-10.65 26.8 14.78 50.3 34.71 68.99 58.3-3.14 6.33-10.81 12.43-22.54 17.91zm-138.8 234.16c0.07-3.33 0.14-6.75 0.21-10.23-1.28 1.88-2.56 3.78-3.85 5.71l-5.55 8.25-4.71-6.58c-0.83-1.17-1.64-2.33-2.43-3.49 0.03 2.15 0.04 4.26 0.07 6.34-26.35-0.3-52.22-1.98-76.19-4.93 8.17 6.16 16.99 11.43 26.35 15.67 16.2 1.35 33 2.15 50.02 2.33 0.06 3.34 0.11 6.61 0.17 9.77 2.04 0.1 4.1 0.14 6.17 0.14 3.04 0 6.11-0.1 9.18-0.31 0.08-3.11 0.18-6.31 0.27-9.6 16.08-0.18 32.23-0.89 48.11-2.18 9.3-4.15 18.03-9.36 26.17-15.6-24.04 2.93-49.1 4.45-73.99 4.71zm40.26-105.68c-13.15 0.84-26.42 1.34-39.65 1.49-0.01-2.73-0.04-5.44-0.06-8.17-2.02 1.8-4.03 3.63-6.03 5.48l-3.82 3.56-3.84-3.56c-1.05-0.98-2.11-1.95-3.18-2.91-0.03 1.86-0.04 3.71-0.06 5.58-14.46-0.15-28.8-0.72-42.77-1.66 5.55 5.65 11.02 11.57 16.43 17.78 8.67 0.41 17.43 0.65 26.24 0.74-0.04 6.9-0.06 13.81-0.07 20.72 0 3.89-0.01 7.72-0.01 11.5 2.26 3.09 4.51 6.25 6.76 9.47 0.15 0.22 0.31 0.45 0.48 0.66 1.05-1.46 2.12-2.97 3.18-4.47 2.25-3.22 4.51-6.39 6.8-9.51 0.01-2.52 0.03-5.07 0.03-7.65 0.01-6.9 0.01-13.8-0.01-20.72 7.72-0.08 15.43-0.28 23.13-0.6 5.37-6.14 10.85-12.05 16.45-17.73zm-146.84-63.34c-1.41 6.53-2.68 13.14-3.81 19.82 4.51 3.13 8.92 6.35 13.25 9.67 1.03-7.88 2.22-15.68 3.6-23.39-4.3-2.13-8.66-4.16-13.04-6.1zm6.33 133.62c-4.4-3.06-8.59-6.66-12.56-10.81-1.17-1.21-2.28-2.43-3.34-3.67 0.52 8.69 1.32 17.05 2.4 25.07 5.1 5.86 10.68 11.29 16.67 16.2-1.34-8.48-2.41-17.43-3.17-26.79zm-47.7-82.96c-0.13 5.73 0.11 11.48 0.73 17.22 4.01 0.91 8.11 1.78 12.31 2.61 0.01-5.41 0.59-10.96 1.76-16.67-5.07-0.98-10.02-2.03-14.8-3.16zm242.36 72.1c-2.29 2.39-4.67 4.6-7.1 6.63-0.73 9.13-1.76 17.89-3.06 26.22 4.1-3.84 8.02-7.97 11.76-12.4 2.14-2.53 4.19-5.1 6.13-7.72 0.96-7.97 1.63-16.23 2.02-24.78-2.78 4.16-6.02 8.18-9.75 12.05zm115.29-85.01c-0.06-1.57-0.13-3.16-0.21-4.72-0.14-2.57-0.31-5.26-0.52-8.18v-0.03c0.35-1.7 0.45-3.43 0.28-5.14l-1.98-14.94-0.34-1.87c0.24 1.76 0.2 3.51-0.13 5.27-0.03 0.15-0.06 0.3-0.08 0.45-0.93-5.17-2.05-10.27-3.36-15.3-0.86 0.32-1.73 0.66-2.59 1 1.73 6.23 3.16 12.55 4.3 18.96-3.92 7.97-13.58 15.64-28.35 22.54-1.46-9.65-3.47-19.2-6.02-28.56l-8.8 4.09c2.38 9.32 4.26 18.8 5.64 28.39-4.95 1.95-10.34 3.81-16.16 5.59 0.3 5.76 0.3 11.48-0.01 17.16 6.52-1.95 12.54-4.02 18.02-6.17 0.53 6.83 0.82 13.7 0.8 20.6-0.06 24.57-3.67 47.45-10.27 68.08-12.77 5.02-28.6 9.5-47.16 13.24-4.71 5.51-9.78 10.71-15.22 15.54 23.12-3.98 42.41-9.12 57.4-15.01-10.17 25.06-25.03 46.22-43.37 62.3-11.47 4.51-26.38 8.42-44.3 11.41 11.24-13.87 20.45-32.79 26.9-55.77-1.04 0.87-2.11 1.74-3.18 2.6-4.54 3.63-9.26 7-14.14 10.09-5.28 18.13-12.18 33.21-20.34 44.69-0.3 0.04-0.59 0.08-0.87 0.13-18.87 2.53-38.75 3.85-58.49 4.06 0.53-6.66 1-14.69 1.43-23.95-2.54 0.13-5.1 0.18-7.66 0.18h-0.01c-2.11 0-4.2-0.04-6.31-0.13 0.28 9.25 0.58 17.24 0.91 23.89-19.93-0.21-39.49-1.56-57.45-3.89-7.21-10.81-13.35-24.85-18.14-41.64-5.55-3.19-10.85-6.7-15.91-10.5 5.89 20.73 14 37.86 23.78 50.66-17.3-2.73-32.79-6.42-45.25-10.99-17.76-15.95-32.13-37-41.92-62.01 14.74 5.41 32.63 9.91 52.55 13.44-5.42-4.88-10.5-10.09-15.18-15.61-15.74-3.22-29.99-7.1-42.16-11.55-6.34-20.59-9.78-43.44-9.73-68.01 0.01-6.89 0.3-13.76 0.84-20.6 4.17 1.53 8.57 2.99 13.18 4.38-0.28-5.66-0.24-11.38 0.11-17.13-3.99-1.24-7.81-2.52-11.45-3.85 1.32-9.28 3.11-18.45 5.35-27.49l-0.94-0.46-8.66-4.01c-2.45 9.16-4.38 18.49-5.82 27.94-4.43-1.93-8.5-3.94-12.2-6.04-10.01-5.68-16.51-11.59-19.73-17.53 1.15-6.38 2.6-12.68 4.31-18.87-0.93-0.38-1.87-0.74-2.8-1.11-1.32 5.02-2.46 10.1-3.4 15.25-0.07-0.31-0.14-0.6-0.2-0.91-0.42-2.12-0.42-4.24-0.04-6.34l-0.46 2.64-2.05 14.93c-0.18 1.84-0.07 3.67 0.35 5.51 0.03 0.14 0.06 0.3 0.1 0.44-0.6 5.89-0.94 11.86-1.04 17.86 0 0.87-0.01 1.73-0.01 2.59 0 1.78 0.01 3.56 0.07 5.33 0.03 0.93 0.06 1.87 0.08 2.81 0.04 0.94 0.08 1.87 0.13 2.81 0.1 1.76 0.2 3.51 0.32 5.26 0.1 1.12 0.18 2.23 0.3 3.34 0.13 1.29 0.25 2.59 0.39 3.86 1.03 8.99 2.63 17.81 4.79 26.42 1.94 6.58 4.46 15.37 6.72 21.84l3.01 7.73c1.35 2.97 2.91 6.48 4.5 9.92 3.08 5.38 8.99 10.72 18.06 15.88 3.44 1.95 7.24 3.82 11.34 5.62 10.37 25.23 25.58 46.62 44.38 62.98-7.18-3.42-11.14-5.31-15.98-9.32l1.41 1.17c3.94 3.02 9.11 7.17 13.15 10.03 1.26 0.87 2.64 1.74 4.15 2.6 2.33 1.32 4.89 2.59 7.66 3.79 8.19 5.93 16.95 11 26.2 15.11l8.35 3.49 1.57 0.59c-4.85-1.93-9.57-4.13-14.15-6.65-5.42-2.95-10.64-6.31-15.64-10.02 11.43 4.19 25.62 7.58 41.49 10.08 9.64 10.19 20.62 16.54 32.53 18.44l2.26 0.35 3.22 0.45 0.32 0.04c-10.46-2.45-16.95-4.48-28.94-17.93 16.47 2.14 34.4 3.37 52.67 3.57 0.69 10.53 1.49 16.19 2.38 16.2h4.81c1.28-0.04 2.45-5.71 3.49-16.2 18.09-0.2 36.3-1.41 53.6-3.72 0.27-0.04 0.53-0.08 0.8-0.11-9.02 10.25-19.31 16.46-30.45 18.02l7.15-1.12 0.46-0.07c0.2-0.06 0.39-0.11 0.59-0.17 3.51-0.74 6.94-1.84 10.29-3.27 0.42-0.17 0.84-0.35 1.26-0.53 0.18-0.08 0.37-0.17 0.56-0.25 5.93-2.59 12.21-6.54 19.98-14.08 16.43-2.74 30.09-6.32 40.6-10.46-7.63 5.55-15.74 10.3-24.29 14.17 2.5-1.07 5.05-2.18 7.15-3.16l0.86-0.41c7.7-3.72 15.07-8.08 22.02-13.06 3.58-1.67 6.69-3.42 9.29-5.21 4.33-3.26 10.16-7.52 14.36-10.96-4.81 3.5-5.94 4.33-12.99 7.84 19.28-16.49 34.91-37.97 45.62-63.27 13.35-6.23 22.15-13.15 26-20.34-0.51 1.12-1.01 2.28-1.5 3.29 0.63-1.29 1.25-2.6 1.87-3.91 0.59-1.28 1.05-2.61 1.62-3.91 1.86-4.3 3.7-8.78 5.24-12.52l0.58-1.55c2.61-7.81 5.57-18.4 7.69-26.34l0.73-3.36c0.13-0.74 0.24-1.43 0.35-2.15 1.21-6.18 2.16-12.45 2.8-18.82 0.24-2.09 0.45-4.17 0.6-6.28 0-0.04 0.01-0.08 0.01-0.13 0.31-4.09 0.46-8.31 0.45-13.06 0-2.59-0.07-5.33-0.18-8.28zm-405.2 98.78c-9.6-5.45-15.82-11.12-18.92-16.81-7.9-21.6-12.18-45.01-12.13-69.58 0.01-6.89 0.37-13.72 1.04-20.48 3.26 6 9.82 11.97 19.94 17.72 3.74 2.12 7.86 4.16 12.33 6.1-0.58 6.83-0.89 13.7-0.9 20.59-0.04 24.57 3.6 47.5 10.32 68.23-4.25-1.83-8.14-3.76-11.68-5.77zm391.35-16.92c-3.75 7.63-13 14.98-27.15 21.59 6.94-20.77 10.75-43.74 10.79-68.29 0.01-6.9-0.27-13.76-0.84-20.59 14.94-6.97 24.69-14.73 28.66-22.77 0.66 6.75 0.98 13.58 0.97 20.46-0.04 24.57-4.42 47.98-12.43 69.6zm-99.71-155.45c-3.4-4.43-7.66-9.02-12.65-13.53-1.11 0.2-2.23 0.39-3.37 0.58-0.6-1.69-1.21-3.36-1.84-5.03-5.02-4.08-10.64-8.01-16.78-11.65 2.15 6.03 4.2 12.23 6.13 18.57-0.34 0.06-0.67 0.1-1.01 0.14-21.88 2.95-44.94 4.48-67.85 4.72-0.44-15.22-0.96-29.7-1.52-43.15-2.19-0.11-4.41-0.17-6.66-0.17h-0.56c-1.18 0-2.38 0.03-3.54 0.07-0.45 13.48-0.84 28-1.21 43.24-23.13-0.25-45.82-1.8-66.67-4.53 2.18-7.49 4.5-14.8 6.96-21.88-5.35 2.88-10.36 5.99-14.97 9.23-1.34 3.6-2.64 7.25-3.89 10.95-2.78-0.44-5.54-0.9-8.24-1.38-5.07 4.5-9.4 9.06-12.85 13.46 5.26 1.04 10.71 2.01 16.32 2.9-0.65 2.15-1.26 4.31-1.87 6.49 4.03 1.71 8.04 3.51 12 5.38 0.79-3.39 1.6-6.75 2.45-10.08 22.02 2.87 45.98 4.51 70.42 4.78-0.34 16.2-0.63 33.1-0.86 50.34 2.23 1.78 4.46 3.61 6.65 5.47 3.11-2.63 6.24-5.2 9.43-7.72-0.24-16.47-0.58-32.59-0.97-48.09 24.19-0.25 48.56-1.88 71.67-4.99 0.37-0.04 0.72-0.1 1.07-0.14 0.73 2.73 1.43 5.48 2.12 8.25 4.15-1.88 8.32-3.68 12.55-5.41-0.48-1.62-0.97-3.23-1.48-4.83 3.78-0.63 7.47-1.29 11.02-1.99zm-2.58 33.21c-4.6 1.91-9.14 3.94-13.62 6.07 1.38 7.31 2.6 14.71 3.67 22.19 4.53-3.36 9.11-6.59 13.79-9.73-1.15-6.23-2.42-12.43-3.84-18.53zm35.58 53.81c-4.61 1.07-9.4 2.08-14.38 3.04 1.12 5.72 1.69 11.27 1.66 16.67 4.13-0.8 8.15-1.63 12.03-2.5 0.58-5.64 0.8-11.38 0.69-17.21zm31.71-73.33c-3.05 0.53-6.09 1.11-9.09 1.74 0.66 1.7 1.31 3.4 1.93 5.12 2.77-1.29 5.55-2.57 8.38-3.82-0.41-1.03-0.82-2.04-1.22-3.04zm-261.1 155.77c-4.4-3.06-8.59-6.66-12.56-10.81-1.17-1.21-2.28-2.43-3.34-3.67 0.52 8.69 1.32 17.05 2.4 25.07 5.1 5.86 10.68 11.29 16.67 16.2-1.34-8.48-2.41-17.43-3.17-26.79zm171.92 112.01c1.81-0.72 3.6-1.48 5.35-2.28-1.87 0.8-3.73 1.59-5.35 2.28zm-171.92-112.01c-4.4-3.06-8.59-6.66-12.56-10.81-1.17-1.21-2.28-2.43-3.34-3.67 0.52 8.69 1.32 17.05 2.4 25.07 5.1 5.86 10.68 11.29 16.67 16.2-1.34-8.48-2.41-17.43-3.17-26.79zm171.92 112.01c1.81-0.72 3.6-1.48 5.35-2.28-1.87 0.8-3.73 1.59-5.35 2.28zm-171.92-112.01c-4.4-3.06-8.59-6.66-12.56-10.81-1.17-1.21-2.28-2.43-3.34-3.67 0.52 8.69 1.32 17.05 2.4 25.07 5.1 5.86 10.68 11.29 16.67 16.2-1.34-8.48-2.41-17.43-3.17-26.79zm171.92 112.01c1.81-0.72 3.6-1.48 5.35-2.28-1.87 0.8-3.73 1.59-5.35 2.28zm21.89-248.26c-4.6 1.91-9.14 3.94-13.62 6.07 1.38 7.31 2.6 14.71 3.67 22.19 4.53-3.36 9.11-6.59 13.79-9.73-1.15-6.23-2.42-12.43-3.84-18.53zm-53.3 65.97c-13.15 0.84-26.42 1.34-39.65 1.49-0.01-2.73-0.04-5.44-0.06-8.17-2.02 1.8-4.03 3.63-6.03 5.48l-3.82 3.56-3.84-3.56c-1.05-0.98-2.11-1.95-3.18-2.91-0.03 1.86-0.04 3.71-0.06 5.58-14.46-0.15-28.8-0.72-42.77-1.66 5.55 5.65 11.02 11.57 16.43 17.78 8.67 0.41 17.43 0.65 26.24 0.74-0.04 6.9-0.06 13.81-0.07 20.72 0 3.89-0.01 7.72-0.01 11.5 2.26 3.09 4.51 6.25 6.76 9.47 0.15 0.22 0.31 0.45 0.48 0.66 1.05-1.46 2.12-2.97 3.18-4.47 2.25-3.22 4.51-6.39 6.8-9.51 0.01-2.52 0.03-5.07 0.03-7.65 0.01-6.9 0.01-13.8-0.01-20.72 7.72-0.08 15.43-0.28 23.13-0.6 5.37-6.14 10.85-12.05 16.45-17.73zm-140.51 70.28c-4.4-3.06-8.59-6.66-12.56-10.81-1.17-1.21-2.28-2.43-3.34-3.67 0.52 8.69 1.32 17.05 2.4 25.07 5.1 5.86 10.68 11.29 16.67 16.2-1.34-8.48-2.41-17.43-3.17-26.79zm171.92 112.01c1.81-0.72 3.6-1.48 5.35-2.28-1.87 0.8-3.73 1.59-5.35 2.28zm21.89-248.26c-4.6 1.91-9.14 3.94-13.62 6.07 1.38 7.31 2.6 14.71 3.67 22.19 4.53-3.36 9.11-6.59 13.79-9.73-1.15-6.23-2.42-12.43-3.84-18.53z"/>
			<path class="edpark-logo-main-2" d="m341.32 396.43c0.68 1.47 1.42 2.9 2.13 4.35 0.77 1.62 1.53 3.18 2.25 4.6l1.41 2.66c-1.52-2.82-2.91-5.72-4.3-8.62-0.36-0.76-0.71-1.52-1.07-2.3-0.08-0.14-0.21-0.28-0.29-0.42-0.04-0.1-0.08-0.18-0.13-0.27z"/>
			<path class="edpark-logo-main-3" d="m833.37 218.95c-6.25-0.72-12.49-1.61-18.75-2.05-17.66-1.22-35.35-3.14-53.01-3.06-9.59 0.04-19.21 0.74-28.78 1.78h-0.04c-5.95 0.64-11.89 1.41-17.8 2.22-2.82 0.39-4.87 0.67-6.44 0.77h-0.04c-14.4 2.51-25.29 5.6-27.18 6.14-0.13 0.04-0.21 0.06-0.25 0.08l-0.04 0.01c-3.48 1.13-7.11 1.71-10.68 2.22-1.51 0.21-3.83-2.21-5.13-3.92-8.15-10.59-17.25-20.22-27.73-28.51-24.39-19.27-51.91-30.92-83.03-33.37-55.26-4.36-100.2 15.52-135.41 58.02-7.77 9.38-4.16 9.45-17.7 5.65-1.13-0.31-2.23-0.67-3.36-1.04h-0.03c-0.01-0.01-0.03-0.01-0.05-0.01-1-0.24-12.35-2.87-26.75-5.31-0.04 0-0.06-0.01-0.09-0.01-0.72-0.11-1.52-0.24-2.42-0.38-6.23-0.95-12.47-1.85-18.73-2.59-0.21-0.03-0.41-0.04-0.63-0.06-2.1-0.24-4.19-0.45-6.29-0.64-29.19-2.66-58.21-0.35-87.19 3.09-5.18 0.62-10.37 1.34-15.55 2.01 39.49 13.29 79.32 24.64 117.64 42.23l15.78 7.31c0.01-0.03 0.01-0.04 0.03-0.06 0.6 0.3 1.21 0.6 1.8 0.9l0.08 0.04c4.18 2.06 8.32 4 12.23 6.38 1.08 0.64 1.57 3.2 1.39 4.77-0.59 5.07-1.76 10.08-2.42 15.15-9.87 75.26 36.82 144.73 106.07 167.02 88.2 28.4 180.14-25.6 199.67-115.59 4.66-21.44 4.39-43.02 0.03-64.55-1.23-6.05-1.21-6.13 4.44-9.03 3.46-1.78 7.05-3.35 10.62-5.03l16.52-7.68c-0.01-0.01-0.01-0.03-0.01-0.04 0.82-0.38 1.64-0.74 2.46-1.1l0.1-0.05c36.94-16.55 75.8-27.7 114.31-40.11-2.63-0.91-5.13-1.31-7.64-1.6zm-293.47-47.49c54.33-0.24 101.08 32.99 116.44 60.51-42.69 14.86-81.22 36.94-115.71 66.98-34.55-29.95-73.01-52.14-115.72-66.95 14.98-27.15 61.59-60.3 114.99-60.54zm110.31 237.84c-23.17 27.38-52.81 43.95-88.45 49.18-78.58 11.52-147.4-41.06-162.51-113.91-3.78-18.21-3.94-36.54-0.35-54.84 0.35-1.74 1.15-3.41 2.11-6.2 9.11 5.77 17.64 11.18 26.37 16.71-11.84 30.39-8.56 57.93 13.77 81.13 22.46 23.34 50.01 26.78 80.53 16.43 6.82 8.4 12.05 17.99 18.89 27.54 6.43-9.55 12.47-18.53 18.6-27.63 30.64 10.39 58.43 7.16 81.09-16.41 22.37-23.24 25.42-50.8 13.73-81.12 8.56-5.47 16.93-10.82 25.43-16.24 3.92 3.95 3.54 8.7 4.04 12.82 5.17 42.27-5.78 80.05-33.25 112.54zm-200.05-63.67c6.75 20.61 28.13 33.74 49.31 29.96 4.03-0.73 6.72-0.08 8.84 3.4 1.31 2.15 2.91 4.13 4.72 6.63-17.55 9.49-45.57 4.27-62.26-12.59-18.16-18.35-21.25-47.43-11.67-63.8 3.08 2.4 6.3 4.51 8.96 7.19 0.99 0.98 1.03 3.35 0.83 5.01-0.95 8.17-1.32 16.27 1.27 24.2zm7.46-21.09c15.45 12.9 27.98 26.57 40.86 42.22-14.26 1.96-24.58-2.18-32.71-11.42-7.31-8.3-10.9-17.97-8.15-30.8zm175.14 2.71c-1.24-9.1 1.47-14.02 9.15-17.4 8.27 8.21 8.56 38.7-6.6 57.84-16.78 21.19-46.89 28.16-67.16 18.01 1.74-2.47 3.29-4.48 4.63-6.62 2.12-3.33 4.68-4.31 8.8-3.58 28.83 5.07 55.09-19.32 51.18-48.25zm-49.42 39.06c12.13-15.54 25.19-28.71 39.38-41.38 3.83 8.26 1.32 19.75-5.56 28.62-8.07 10.41-20.29 15.33-33.82 12.76zm165.48-132.14c-21.15 8.06-41.84 17.1-61.97 27.43-56.92 29.17-102.12 71.43-138.46 123.61-2 2.86-4.05 5.7-6.11 8.52-0.26 0.35-0.73 0.55-1.91 1.42-1.61-2.01-3.35-3.98-4.86-6.13-17.14-24.55-35.98-47.64-57.68-68.31-28.47-27.13-60.77-48.66-96.23-65.36-16.22-7.63-32.96-14.13-49.47-21.15-2.01-0.85-4.02-1.71-6.03-2.56 0.28-0.62 0.55-1.22 0.83-1.83 82.07 3.99 153.12 34.46 213.68 90.67 60.53-56.23 131.53-86.59 214.32-90.72-1.05 3.79-4.04 3.64-6.11 4.41z"/>
		</g>
	</g>
</svg>
